<svg xmlns="http://www.w3.org/2000/svg" width="64" height="64" viewBox="0 0 64 64"><title>li</title><path d="M46,30L45.66,59H18.34L18,30C17.8,12.63,46.2,12.63,46,30ZM46.71,5a2,2,0,1,0,2,2A2,2,0,0,0,46.71,5ZM46,9L40,19M14.94,7a2,2,0,1,0,2-2A2,2,0,0,0,14.94,7Zm2.71,2,6,10M34.06,29.64c0-1-4.13-1-4.13,0m9.29-1h0c-2.59,0-5.15.24-5.15,0.72,0.08,2.14.61,7.17,1.1,7.12,0,0.28,2,.42,4,0.42h0c2,0,4-.14,4-0.42,0.5,0.06,1.1-7.12,1.1-7.12A22.14,22.14,0,0,0,39.23,28.59Zm5.15,0.72h2.06m-26.83,0s0.61,7.17,1.1,7.12c0,0.28,2,.42,4,0.42h0c2,0,4-.14,4-0.42,0.5,0.06,1-5,1.1-7.12,0-.48-2.57-0.71-5.15-0.72h0A22.14,22.14,0,0,0,19.62,29.3Zm0,0H17.56M42,48.61c0-4.82-20-4.82-20,0V59H42V48.61ZM32,59.2V45m5,14V45.43M27,59.24V45.44" fill="none" stroke="#221f1f" stroke-miterlimit="10" stroke-width="2"/></svg>