<svg xmlns="http://www.w3.org/2000/svg" width="64" height="64" viewBox="0 0 64 64"><title>leapicons-navigation</title><g id="fullscreen"><g id="expanded-4" data-name="expanded"><path id="_Compound_Path_" data-name="&lt;Compound Path&gt;" d="M59,60H43a1,1,0,0,1,0-2H58V43a1,1,0,0,1,2,0V59A1,1,0,0,1,59,60ZM21,60H5a1,1,0,0,1-1-1V43a1,1,0,0,1,2,0V58H21a1,1,0,0,1,0,2ZM59,22a1,1,0,0,1-1-1V6H43a1,1,0,0,1,0-2H59a1,1,0,0,1,1,1V21A1,1,0,0,1,59,22ZM5,22a1,1,0,0,1-1-1V5A1,1,0,0,1,5,4H21a1,1,0,0,1,0,2H6V21A1,1,0,0,1,5,22Z"/></g></g></svg>