<svg xmlns="http://www.w3.org/2000/svg" width="64" height="64" viewBox="0 0 64 64"><title>leapicons-navigation</title><g id="cross-enclosed"><g id="expanded-2" data-name="expanded"><path id="_Compound_Path_" data-name="&lt;Compound Path&gt;" d="M47.71,17.71,33.41,32,47.71,46.29a1,1,0,1,1-1.41,1.41L32,33.41,17.71,47.71a1,1,0,0,1-1.41-1.41L30.59,32,16.29,17.71a1,1,0,0,1,1.41-1.41L32,30.59,46.29,16.29a1,1,0,0,1,1.41,1.41ZM60,32A28,28,0,1,1,32,4,28,28,0,0,1,60,32Zm-2,0A26,26,0,1,0,32,58,26,26,0,0,0,58,32Z"/></g></g></svg>