<svg id="app" xmlns="http://www.w3.org/2000/svg" width="64" height="64" viewBox="0 0 64 64"><title>leapicons-navigation</title><g id="expanded"><path id="_Compound_Path_" data-name="&lt;Compound Path&gt;" d="M59,60H45a1,1,0,0,1-1-1V45a1,1,0,0,1,1-1H59a1,1,0,0,1,1,1V59A1,1,0,0,1,59,60ZM46,58H58V46H46Zm-7,2H25a1,1,0,0,1-1-1V45a1,1,0,0,1,1-1H39a1,1,0,0,1,1,1V59A1,1,0,0,1,39,60ZM26,58H38V46H26Zm-7,2H5a1,1,0,0,1-1-1V45a1,1,0,0,1,1-1H19a1,1,0,0,1,1,1V59A1,1,0,0,1,19,60ZM6,58H18V46H6ZM59,40H45a1,1,0,0,1-1-1V25a1,1,0,0,1,1-1H59a1,1,0,0,1,1,1V39A1,1,0,0,1,59,40ZM46,38H58V26H46Zm-7,2H25a1,1,0,0,1-1-1V25a1,1,0,0,1,1-1H39a1,1,0,0,1,1,1V39A1,1,0,0,1,39,40ZM26,38H38V26H26Zm-7,2H5a1,1,0,0,1-1-1V25a1,1,0,0,1,1-1H19a1,1,0,0,1,1,1V39A1,1,0,0,1,19,40ZM6,38H18V26H6ZM59,20H45a1,1,0,0,1-1-1V5a1,1,0,0,1,1-1H59a1,1,0,0,1,1,1V19A1,1,0,0,1,59,20ZM46,18H58V6H46Zm-7,2H25a1,1,0,0,1-1-1V5a1,1,0,0,1,1-1H39a1,1,0,0,1,1,1V19A1,1,0,0,1,39,20ZM26,18H38V6H26Zm-7,2H5a1,1,0,0,1-1-1V5A1,1,0,0,1,5,4H19a1,1,0,0,1,1,1V19A1,1,0,0,1,19,20ZM6,18H18V6H6Z"/></g></svg>