<svg xmlns="http://www.w3.org/2000/svg" width="64" height="64" viewBox="0 0 64 64"><title>leapicons-navigation</title><g id="tick-double"><g id="expanded-6" data-name="expanded"><path id="_Path_" data-name="&lt;Path&gt;" d="M31.17,47a1,1,0,0,1-.71-.29l-6.29-6.33-6.29,6.33a1,1,0,0,1-1.42,0L4.29,34.46A1,1,0,0,1,5.71,33L17.17,44.58,22.76,39l-4.47-4.5A1,1,0,0,1,19.71,33l4.46,4.49L44.29,17.29a1,1,0,0,1,1.42,1.41L25.58,39l5.59,5.63L58.29,17.29a1,1,0,0,1,1.42,1.41l-27.83,28A1,1,0,0,1,31.17,47Z"/></g></g></svg>