<svg xmlns="http://www.w3.org/2000/svg" width="64" height="64" viewBox="0 0 64 64"><title>leapicons-navigation</title><g id="zoom-in"><g id="expanded-6" data-name="expanded"><path id="_Compound_Path_" data-name="&lt;Compound Path&gt;" d="M53.66,55a1,1,0,0,1-.71-.29L37.38,39.13a17.27,17.27,0,1,1,1.41-1.41L54.36,53.29A1,1,0,0,1,53.66,55ZM25.91,11A15.25,15.25,0,1,0,41.16,26.25,15.27,15.27,0,0,0,25.91,11ZM26,36a1,1,0,0,1-1-1V27H17a1,1,0,0,1,0-2h8V17a1,1,0,0,1,2,0v8h8a1,1,0,0,1,0,2H27v8A1,1,0,0,1,26,36Z"/></g></g></svg>