<svg xmlns="http://www.w3.org/2000/svg" width="64" height="64" viewBox="0 0 64 64"><title>leapicons-navigation</title><g id="fullscreen-exit"><g id="expanded-4" data-name="expanded"><path id="_Compound_Path_" data-name="&lt;Compound Path&gt;" d="M44,61a1,1,0,0,1-1-1V44a1,1,0,0,1,1-1H60a1,1,0,0,1,0,2H45V60A1,1,0,0,1,44,61ZM20,61a1,1,0,0,1-1-1V45H4a1,1,0,0,1,0-2H20a1,1,0,0,1,1,1V60A1,1,0,0,1,20,61ZM60,21H44a1,1,0,0,1-1-1V4a1,1,0,0,1,2,0V19H60a1,1,0,0,1,0,2ZM20,21H4a1,1,0,0,1,0-2H19V4a1,1,0,0,1,2,0V20A1,1,0,0,1,20,21Z"/></g></g></svg>