<svg xmlns="http://www.w3.org/2000/svg" width="64" height="64" viewBox="0 0 64 64"><title>leapicons-phone</title><g id="phone-call-forward"><g id="expanded-5" data-name="expanded"><path id="expanded-6" data-name="expanded" d="M45.13,55.81c-3.85,0-13.77-6.73-22-14.95-8.43-8.41-15.3-18.56-15-22.15.35-3,6.48-9.42,9.55-10.64a2.23,2.23,0,0,1,2.41.16,1,1,0,0,1,.18.2l7.65,11.11a1,1,0,0,1,0,1.13l-4.27,6.21c1.07,2.36,11.17,12.37,13.53,13.41l6.18-4.22a1,1,0,0,1,1.12,0l11.19,7.57a1,1,0,0,1,.2.18,2.22,2.22,0,0,1,.17,2.4c-1.21,3.08-7.68,9.22-10.66,9.57Zm-26.34-46A5.7,5.7,0,0,0,16.64,11c-3.11,2.36-6.37,6.52-6.53,7.9-.19,2.29,5.33,11.47,14.42,20.54,8.92,8.9,18,14.37,20.52,14.37h.13c1.35-.16,5.53-3.42,7.91-6.54a5.76,5.76,0,0,0,1.2-2.15l-10.37-7-5.81,4c-.61.59-1.83,1.2-10-7-1.89-1.89-3.56-3.71-4.71-5.12-1.58-1.94-2.31-3.17-1.57-4l4-5.85ZM60,25a1,1,0,0,0-1-1H36a1,1,0,0,0,0,2H59A1,1,0,0,0,60,25Zm-.18.68a1,1,0,0,0,0-1.41l-7.1-7.07a1,1,0,0,0-1.41,1.42l7.1,7.07a1,1,0,0,0,1.41,0Zm-7.1,7.07,7.1-7.07a1,1,0,1,0-1.41-1.42l-7.1,7.07a1,1,0,1,0,1.41,1.42Z"/></g></g></svg>