<svg xmlns="http://www.w3.org/2000/svg" width="64" height="64" viewBox="0 0 64 64"><title>leapicons-phone</title><g id="phone-disconnected"><g id="expanded-9" data-name="expanded"><path id="_Compound_Path_" data-name="&lt;Compound Path&gt;" d="M19,56.21a3.29,3.29,0,0,1-1.2-.26c-3.08-1.22-9.22-7.66-9.57-10.62-.3-3.65,6.54-13.79,14.94-22.17S41.71,8,45.29,8.22c3,.35,9.43,6.46,10.64,9.52a2.22,2.22,0,0,1-.17,2.4,1,1,0,0,1-.2.18L44.46,27.93a1,1,0,0,1-1.13,0l-6.21-4.26C34.76,24.74,24.76,34.8,23.71,37.15l4.22,6.15a1,1,0,0,1,0,1.13L20.36,55.58a1,1,0,0,1-.18.2A1.81,1.81,0,0,1,19,56.21Zm26-46c-2.48,0-11.5,5.46-20.42,14.37S10,42.79,10.19,45.13c.16,1.34,3.42,5.5,6.53,7.87a5.77,5.77,0,0,0,2.16,1.21l7-10.33-4-5.81a1.32,1.32,0,0,1-.2-1.22c.72-2.68,12.43-14.45,15.1-15.17a1.33,1.33,0,0,1,1.22.2l5.87,4,10.29-7.05A5.69,5.69,0,0,0,53,16.71c-2.36-3.09-6.52-6.34-7.89-6.5ZM40,49a9,9,0,1,1,9-9A9,9,0,0,1,40,49ZM34.4,35.81a7,7,0,0,0,9.79,9.79Zm1.41-1.41,9.79,9.79a7,7,0,0,0-9.79-9.79Z"/></g></g></svg>