<svg xmlns="http://www.w3.org/2000/svg" width="64" height="64" viewBox="0 0 64 64"><title>leapicons-phone</title><g id="phone-incoming-call"><g id="expanded-3" data-name="expanded"><path id="expanded-4" data-name="expanded" d="M45.09,55.81c-3.84,0-13.72-6.73-21.93-14.95C14.76,32.45,7.92,22.3,8.22,18.71c.35-3,6.46-9.43,9.52-10.64a2.22,2.22,0,0,1,2.4.17,1,1,0,0,1,.18.2l7.62,11.11a1,1,0,0,1,0,1.13l-4.26,6.21c1.06,2.36,11.12,12.36,13.48,13.41l6.15-4.22a1,1,0,0,1,1.13,0l11.15,7.57a1,1,0,0,1,.2.18,2.23,2.23,0,0,1,.16,2.4c-1.21,3.08-7.66,9.22-10.62,9.57Zm-26.24-46A5.7,5.7,0,0,0,16.71,11c-3.09,2.36-6.34,6.52-6.5,7.89C10,21.2,15.51,30.37,24.57,39.44S42.78,54,45.13,53.81c1.34-.16,5.49-3.42,7.87-6.53a5.78,5.78,0,0,0,1.21-2.16l-10.33-7-5.81,4a1.32,1.32,0,0,1-1.22.2c-2.69-.72-14.46-12.43-15.17-15.11a1.32,1.32,0,0,1,.2-1.22l4-5.87ZM36.71,28.71l16-16a1,1,0,0,0-1.41-1.41l-16,16a1,1,0,1,0,1.41,1.41ZM37,28V18a1,1,0,0,0-2,0V28a1,1,0,0,0,2,0Zm10,0a1,1,0,0,0-1-1H36a1,1,0,0,0,0,2H46A1,1,0,0,0,47,28Z"/></g></g></svg>