<svg xmlns="http://www.w3.org/2000/svg" width="64" height="64" viewBox="0 0 64 64"><title>leapicons-phone</title><g id="phone-missed-call"><g id="expanded-4" data-name="expanded"><path id="editable" d="M10.49,50.63h-.08a2.06,2.06,0,0,1-1.69-1.46c-1.12-2.6-.91-10,.68-12C11.44,34.8,21.74,33,31.92,33H32c10.22,0,20.56,1.82,22.58,4.17,1.61,2,1.83,9.48.72,12.07a2,2,0,0,1-1.69,1.41,1.08,1.08,0,0,1-.26,0L42,48.51a1,1,0,0,1-.8-.8L40,41.56c-2.23-.72-13.83-.7-16.05,0l-1.16,6.09a1,1,0,0,1-.8.8L10.67,50.62ZM31.92,35c-10.74,0-19.74,2-21,3.46s-1.3,8.86-.29,10.22l10.34-2L22.06,41c0-.84.38-2,10.08-2h.09c9.34,0,9.69,1.07,9.7,1.9L43,46.65l10.34,1.9c1-1.35.8-8.7-.33-10.11S42.94,35,32,35ZM32,32a1,1,0,0,0,.71-.27L47,17.42V25a1,1,0,0,0,2,0V15s0-.05,0-.08a1,1,0,0,0-.21-.54l-.13-.14A1,1,0,0,0,48,14H38a1,1,0,0,0,0,2h7.6L32,29.63,16.75,14.34a1,1,0,1,0-1.41,1.4l16,16A1,1,0,0,0,32,32Z"/></g></g></svg>