<svg xmlns="http://www.w3.org/2000/svg" width="64" height="64" viewBox="0 0 64 64"><title>leapicons-volume</title><g id="volume-mute"><g id="editable"><path id="_Compound_Path_" data-name="&lt;Compound Path&gt;" d="M34,52a2,2,0,0,1-1.07-.31L12.71,39,6,39a2.05,2.05,0,0,1-2-2V27a2.05,2.05,0,0,1,2-2h6.71v0h0L32.93,12.31A2,2,0,0,1,36,14V50a2,2,0,0,1-2,2ZM6,27V37l6.71,0a1.94,1.94,0,0,1,1.07.28L34,50V14L13.78,26.72a2,2,0,0,1-1.07.28ZM49,41a9,9,0,1,1,9-9A9,9,0,0,1,49,41ZM43.4,27.81a7,7,0,0,0,9.79,9.79Zm1.41-1.41,9.79,9.79a7,7,0,0,0-9.79-9.79Z"/></g></g></svg>