<svg xmlns="http://www.w3.org/2000/svg" width="64" height="64" viewBox="0 0 64 64"><title>leapicons-volume</title><g id="volume-medium"><g id="expanded"><path id="_Compound_Path_" data-name="&lt;Compound Path&gt;" d="M34,52a2,2,0,0,1-1.07-.31L12.71,39,6,39a2.05,2.05,0,0,1-2-2V27a2.05,2.05,0,0,1,2-2h6.71v0L32.93,12.31A2,2,0,0,1,36,14V50a2,2,0,0,1-2,2ZM6,27V37l6.71,0a2,2,0,0,1,1.07.28L34,50V14L13.78,26.72h0a2,2,0,0,1-1.07.28ZM45.43,46.44a1,1,0,0,1-.71-1.71,18,18,0,0,0,0-25.46,1,1,0,0,1,1.41-1.41,20,20,0,0,1,0,28.28A1,1,0,0,1,45.43,46.44Zm-5.66-5.66a1,1,0,0,1-.71-1.71,10,10,0,0,0,0-14.14,1,1,0,0,1,1.41-1.41,12,12,0,0,1,0,17A1,1,0,0,1,39.78,40.78Z"/></g></g></svg>