<svg xmlns="http://www.w3.org/2000/svg" width="64" height="64" viewBox="0 0 64 64"><title>leapicons-volume</title><g id="volume-increase"><g id="expanded"><path id="_Compound_Path_" data-name="&lt;Compound Path&gt;" d="M34,52a2,2,0,0,1-1.07-.31L12.71,39,6,39a2.05,2.05,0,0,1-2-2V27a2.05,2.05,0,0,1,2-2h6.78L32.93,12.31A2,2,0,0,1,36,14V50a2,2,0,0,1-2,2ZM6,27V37l6.71,0a2,2,0,0,1,1.07.28L34,50V14L13.78,26.72a2,2,0,0,1-1.07.28ZM49,41a1,1,0,0,1-1-1V33H41a1,1,0,0,1,0-2h7V24a1,1,0,0,1,2,0v7h7a1,1,0,0,1,0,2H50v7A1,1,0,0,1,49,41Z"/></g></g></svg>