<svg xmlns="http://www.w3.org/2000/svg" viewBox="0 0 64 64"><defs><style>.cls-1{fill:#231f20;}</style></defs><title>leapicons-maps</title><g id="Location_Marker" data-name="Location Marker"><g id="expanded"><path class="cls-1" d="M32.05,32.9a9.79,9.79,0,1,1,9.79-9.79A9.8,9.8,0,0,1,32.05,32.9Zm0-17.58a7.79,7.79,0,1,0,7.79,7.79A7.8,7.8,0,0,0,32.05,15.32Z"/><path class="cls-1" d="M32,59.48l-.77-.91c-.08-.1-8.16-9.76-13-18.52S13,27.3,13,23.5a19,19,0,0,1,38,0c0,3.8-.4,7.68-5.27,16.55s-12.89,18.42-13,18.52Zm0-53a17,17,0,0,0-17,17c0,3.52.37,7.13,5,15.58A132.24,132.24,0,0,0,32,56.35,133.39,133.39,0,0,0,44,39.08C48.65,30.63,49,27,49,23.5A17,17,0,0,0,32,6.5Z"/></g></g></svg>