<svg id="Pin" xmlns="http://www.w3.org/2000/svg" viewBox="0 0 64 64"><defs><style>.cls-1{fill:#231f20;}</style></defs><title>leapicons-maps</title><g id="expanded"><path class="cls-1" d="M24,19.89a1,1,0,0,1-1-1,9,9,0,0,1,9-9,1,1,0,0,1,0,2,7,7,0,0,0-7,7A1,1,0,0,1,24,19.89Z"/><path class="cls-1" d="M32,59a1,1,0,0,1-1-1V31.27a1,1,0,1,1,2,0V58A1,1,0,0,1,32,59Z"/><path class="cls-1" d="M32,32.27A13.39,13.39,0,1,1,45.39,18.89,13.4,13.4,0,0,1,32,32.27ZM32,7.5A11.39,11.39,0,1,0,43.39,18.89,11.4,11.4,0,0,0,32,7.5Z"/></g></svg>