<svg xmlns="http://www.w3.org/2000/svg" viewBox="0 0 64 64"><defs><style>.cls-1{fill:#231f20;}</style></defs><title>leapicons-maps</title><g id="Thumb_Pin" data-name="Thumb Pin"><g id="expanded"><path class="cls-1" d="M51.11,39.93H12.89l.79-1.47a21.63,21.63,0,0,1,6.67-7.63L22.84,16H19.5V8.5h25V16H41.16l2.49,14.88a21.63,21.63,0,0,1,6.67,7.63Zm-34.8-2H47.69a18.82,18.82,0,0,0-5.51-5.68L41.82,32,38.79,14H42.5V10.5h-21V14h3.71L22.18,32l-.36.24A18.82,18.82,0,0,0,16.31,37.93Z"/><path class="cls-1" d="M32,59a1,1,0,0,1-1-1V38.93a1,1,0,0,1,2,0V58A1,1,0,0,1,32,59Z"/></g></g></svg>