<svg xmlns="http://www.w3.org/2000/svg" width="64" height="64" viewBox="0 0 64 64"><title>li</title><path d="M43.84,59H20.16a3.55,3.55,0,0,1-3.45-3.22L13,15H51L47.29,55.78A3.55,3.55,0,0,1,43.84,59Z" fill="none" stroke="#000" stroke-linejoin="round" stroke-width="2"/><rect x="10" y="11" width="44" height="4" rx="2" ry="2" fill="none" stroke="#000" stroke-linejoin="round" stroke-width="2"/><path d="M44.15,5H19.85A2.27,2.27,0,0,0,18,6.86L17,11H47L46,6.86A2.27,2.27,0,0,0,44.15,5Z" fill="none" stroke="#000" stroke-linejoin="round" stroke-width="2"/><line x1="32" y1="24" x2="32" y2="50" fill="none" stroke="#000" stroke-linejoin="round" stroke-width="2"/><line x1="24" y1="24" x2="24" y2="50" fill="none" stroke="#000" stroke-linejoin="round" stroke-width="2"/><line x1="40" y1="24" x2="40" y2="50" fill="none" stroke="#000" stroke-linejoin="round" stroke-width="2"/><path d="M43.84,60H20.16a4.53,4.53,0,0,1-4.45-4.13L12.09,16H12a3,3,0,0,1,0-6h4.22l0.85-3.38A3.22,3.22,0,0,1,19.85,4h24.3a3.23,3.23,0,0,1,2.79,2.62L47.78,10H52a3,3,0,0,1,0,6H51.91L48.29,55.87A4.53,4.53,0,0,1,43.84,60ZM14.09,16L17.7,55.69A2.55,2.55,0,0,0,20.16,58H43.84a2.55,2.55,0,0,0,2.46-2.31L49.91,16H14.09ZM12,12a1,1,0,0,0,0,2H52a1,1,0,0,0,0-2H12Zm6.28-2H45.72L45,7.1A1.47,1.47,0,0,0,44.15,6H19.85A1.47,1.47,0,0,0,19,7.1ZM41,50H39V24h2V50Zm-8,0H31V24h2V50Zm-8,0H23V24h2V50Z"/></svg>