<svg xmlns="http://www.w3.org/2000/svg" width="64" height="64" viewBox="0 0 64 64"><title>leapicons-battery</title><g id="battery-charging"><g id="expanded"><path id="_Compound_Path_" data-name="&lt;Compound Path&gt;" d="M51.16,45H8a2,2,0,0,1-2-2V21a2,2,0,0,1,2-2H51.16A1.86,1.86,0,0,1,53,21v6h4a1,1,0,0,1,1,1v8a1,1,0,0,1-1,1H53v6A1.86,1.86,0,0,1,51.16,45ZM8,21,8,43H51V36a1,1,0,0,1,1-1h4V29H52a1,1,0,0,1-1-1V21ZM29,39a1,1,0,0,1-1-1V33H17a1,1,0,0,1-.33-1.94l17-6A1,1,0,0,1,35,26v5h9a1,1,0,0,1,.37,1.93l-15,6A1,1,0,0,1,29,39Zm-6.16-8H29a1,1,0,0,1,1,1v4.52L38.81,33H34a1,1,0,0,1-1-1V27.41Z"/></g></g></svg>