<svg xmlns="http://www.w3.org/2000/svg" width="64" height="64" viewBox="0 0 64 64"><title>leapicons-battery</title><g id="battery-eco-mode"><g id="expanded"><path id="expanded-2" data-name="expanded" d="M38,45H8a2,2,0,0,1-2-2V21a2,2,0,0,1,2-2H51.16A1.86,1.86,0,0,1,53,21v6h4a1,1,0,0,1,1,1v8a1,1,0,0,1-1,1H53v1.72a1,1,0,0,1-1.75.66A7,7,0,0,0,39,44,1,1,0,0,1,38,45ZM8,21,8,43H37.06A9,9,0,0,1,51,36.52V36a1,1,0,0,1,1-1h4V29H52a1,1,0,0,1-1-1V21ZM46,53a9,9,0,1,1,9-9A9,9,0,0,1,46,53Zm0-16a7,7,0,1,0,7,7A7,7,0,0,0,46,37ZM43.54,47.08a3.68,3.68,0,0,1-2.23-2.53c2.39-.55,3.15,2.51,7.18-.26-3.75,1.52-3.75-1-7.1-.78a2.53,2.53,0,0,1,1.14-1.28c3.8-2.31,5.2,2.16,9.09.43C51.89,42.55,47.4,48.74,43.54,47.08Z"/></g></g></svg>