<svg xmlns="http://www.w3.org/2000/svg" width="64" height="64" viewBox="0 0 64 64"><title>leapicons-battery</title><g id="battery-low"><g id="editable"><path id="_Compound_Path_" data-name="&lt;Compound Path&gt;" d="M46,53a9,9,0,0,1-8.94-8H8a2,2,0,0,1-2-2V21a2,2,0,0,1,2-2H51.16A1.86,1.86,0,0,1,53,21v6h4a1,1,0,0,1,1,1v8a1,1,0,0,1-1,1H53v1.35A9,9,0,0,1,46,53Zm-7-9a7,7,0,1,0,12.31-4.55l-.07-.07A7,7,0,0,0,46,37h0A7,7,0,0,0,39,44ZM8,21,8,43H37.06A9,9,0,0,1,46,35h0a9,9,0,0,1,5,1.52V36a1,1,0,0,1,1-1h4V29H52a1,1,0,0,1-1-1V21ZM47,49H45V47h2Zm0-4H45V39h2Z"/></g></g></svg>