<?xml version="1.0" encoding="utf-8"?>
<!-- Generator: Adobe Illustrator 19.2.0, SVG Export Plug-In . SVG Version: 6.00 Build 0)  -->
<svg version="1.1" xmlns="http://www.w3.org/2000/svg" xmlns:xlink="http://www.w3.org/1999/xlink" x="0px" y="0px" width="64px"
	 height="64px" viewBox="0 0 64 64" style="enable-background:new 0 0 64 64;" xml:space="preserve">
<style type="text/css">
	.st0{fill:#98D9ED;}
	.st1{fill:none;stroke:#6D6E70;stroke-width:0.15;stroke-miterlimit:10;}
	.st2{fill:none;stroke:#6D6E70;stroke-width:0.25;stroke-miterlimit:10;}
	.st3{display:none;}
	.st4{display:inline;fill:none;stroke:#221F1F;stroke-width:2;stroke-miterlimit:10;}
	.st5{display:inline;}
	.st6{fill:none;stroke:#221F1F;stroke-width:2;stroke-linejoin:round;stroke-miterlimit:10;}
	.st7{fill:none;stroke:#221F1F;stroke-width:2;stroke-miterlimit:10;}
	.st8{display:inline;fill:none;stroke:#221F1F;stroke-width:2;stroke-linecap:round;stroke-linejoin:round;stroke-miterlimit:10;}
	.st9{fill:none;stroke:#221F1F;stroke-width:2;stroke-linecap:round;stroke-linejoin:round;stroke-miterlimit:10;}
	.st10{fill:#FFFFFF;stroke:#221F1F;stroke-width:2;stroke-miterlimit:10;}
	.st11{clip-path:url(#XMLID_26_);fill:#B8DDDB;}
	.st12{clip-path:url(#XMLID_26_);fill:#EDFBFC;}
	.st13{fill:#DBF0F3;stroke:#221F1F;stroke-width:2;stroke-miterlimit:10;}
	.st14{fill:#FFFFFF;stroke:#000000;stroke-width:2;stroke-linecap:round;stroke-linejoin:round;stroke-miterlimit:10;}
	.st15{clip-path:url(#XMLID_27_);fill:#E8E8E8;}
	.st16{clip-path:url(#XMLID_28_);fill:#E8E8E8;}
	.st17{fill:#DBF0F3;stroke:#000000;stroke-width:2;stroke-linejoin:round;stroke-miterlimit:10;}
	.st18{fill:#DBF0F3;stroke:#000000;stroke-width:2;stroke-miterlimit:10;}
	.st19{clip-path:url(#XMLID_29_);fill:#B8DDDB;}
	.st20{clip-path:url(#XMLID_29_);fill:#EDFBFC;}
	.st21{fill:#DBF0F3;stroke:#000000;stroke-width:1.4;stroke-linejoin:round;stroke-miterlimit:10;}
	.st22{fill:#DBF0F3;stroke:#000000;stroke-width:1.4;stroke-miterlimit:10;}
	.st23{fill:#FFFFFF;stroke:#000000;stroke-width:1.4;stroke-linecap:round;stroke-linejoin:round;stroke-miterlimit:10;}
	.st24{clip-path:url(#XMLID_30_);fill:#E8E8E8;}
	.st25{clip-path:url(#XMLID_31_);fill:#E8E8E8;}
	.st26{fill:#DBF0F3;stroke:#221F1F;stroke-width:1.4;stroke-miterlimit:10;}
	.st27{fill:#EDFBFC;}
	.st28{display:inline;fill:none;stroke:#221F1F;stroke-width:2;stroke-linecap:round;stroke-miterlimit:10;}
	.st29{display:inline;fill:none;stroke:#221F1F;stroke-width:2;stroke-linejoin:round;stroke-miterlimit:10;}
	.st30{fill:#221F1F;}
	.st31{clip-path:url(#XMLID_32_);fill:#EDFBFC;}
	.st32{clip-path:url(#XMLID_33_);fill:#B8DDDB;}
	.st33{clip-path:url(#XMLID_33_);fill:#EDFBFC;}
	.st34{clip-path:url(#XMLID_34_);fill:#EDFBFC;}
	.st35{clip-path:url(#XMLID_34_);fill:#B8DDDB;}
	.st36{clip-path:url(#XMLID_35_);fill:#EDFBFC;}
	.st37{clip-path:url(#XMLID_35_);fill:#B8DDDB;}
	.st38{clip-path:url(#XMLID_36_);fill:#B8DDDB;}
	.st39{clip-path:url(#XMLID_37_);}
	.st40{fill:#E8E8E8;}
	.st41{fill:#DBF0F3;}
	.st42{clip-path:url(#XMLID_38_);fill:#B8DDDB;}
	.st43{display:none;fill:none;stroke:#221F1F;stroke-width:2;stroke-miterlimit:10;}
	.st44{clip-path:url(#XMLID_39_);fill:#EDFBFC;}
	.st45{clip-path:url(#XMLID_40_);fill:#E8E8E8;}
	.st46{fill:#B8DDDB;}
	.st47{fill:none;stroke:#000000;stroke-width:2;stroke-linejoin:round;stroke-miterlimit:10;}
	.st48{clip-path:url(#XMLID_41_);fill:#B8DDDB;}
	.st49{clip-path:url(#XMLID_41_);fill:#EDFBFC;}
	.st50{clip-path:url(#XMLID_42_);fill:#B8DDDB;}
	.st51{clip-path:url(#XMLID_42_);fill:#EDFBFC;}
	.st52{clip-path:url(#XMLID_43_);fill:#B8DDDB;}
	.st53{clip-path:url(#XMLID_43_);fill:#EDFBFC;}
	.st54{display:inline;fill:none;stroke:#000000;stroke-width:2;stroke-linejoin:round;stroke-miterlimit:10;}
	.st55{display:none;fill:none;stroke:#221F1F;stroke-width:2;stroke-linecap:round;stroke-linejoin:round;stroke-miterlimit:10;}
	.st56{clip-path:url(#XMLID_44_);fill:#E8E8E8;}
	.st57{clip-path:url(#XMLID_44_);fill:#FFFFFF;}
	.st58{clip-path:url(#XMLID_45_);fill:#B8DDDB;}
	.st59{clip-path:url(#XMLID_45_);fill:#F5FCFC;}
	.st60{clip-path:url(#XMLID_46_);fill:#B8DDDB;}
	.st61{fill:#F4C689;stroke:#F4BC7D;stroke-miterlimit:10;}
	.st62{fill:#EFBB6A;stroke:#EAF3F4;stroke-linecap:round;stroke-linejoin:round;stroke-miterlimit:10;}
	.st63{fill:none;stroke:#AE8DE2;stroke-linecap:round;stroke-linejoin:round;stroke-miterlimit:10;}
	.st64{opacity:0.7;}
	.st65{clip-path:url(#XMLID_47_);fill:#C5F4F9;}
	.st66{clip-path:url(#XMLID_47_);fill:#FFFFFF;}
	.st67{fill:#F2F8F9;stroke:#A6DDDB;stroke-width:0.6;stroke-linecap:round;stroke-linejoin:round;stroke-miterlimit:10;}
	.st68{opacity:0.8;}
	.st69{opacity:0.6;clip-path:url(#XMLID_48_);fill:#95E597;}
	.st70{clip-path:url(#XMLID_48_);fill:#CBF4C9;}
	.st71{clip-path:url(#XMLID_49_);fill:#B8DDDB;}
	
		.st72{display:inline;fill:none;stroke:#221F1F;stroke-width:1.2;stroke-linecap:round;stroke-linejoin:round;stroke-miterlimit:10;}
	.st73{fill:none;stroke:#221F1F;stroke-width:1.2;stroke-linecap:round;stroke-linejoin:round;stroke-miterlimit:10;}
</style>
<g id="Leapfrog_Grid">
	<g id="Grid">
		<path id="nogo_zone_5_" class="st0" d="M60,0H4H0v4v56v4h4h56h4v-4V4V0H60z M60,60H4V4h56V60z"/>
		<g id="odd-shape_grid_5_">
			<rect x="4" y="4" class="st1" width="8" height="56"/>
			<rect x="52" y="4" class="st1" width="8" height="56"/>
			<rect x="28" y="28" transform="matrix(-1.344917e-10 1 -1 -1.344917e-10 88.0196 23.9804)" class="st1" width="8" height="56"/>
			
				<rect x="28" y="-20" transform="matrix(-1.344917e-10 1 -1 -1.344917e-10 40.0196 -24.0196)" class="st1" width="8" height="56"/>
		</g>
		<circle id="circle_5_" class="st1" cx="32" cy="32" r="28"/>
		<g id="diagonals_5_">
			<line class="st1" x1="0" y1="64" x2="64" y2="0"/>
			<line class="st1" x1="64" y1="64" x2="0" y2="0"/>
		</g>
		<g id="mid_sections_5_">
			<line class="st2" x1="32" y1="64" x2="32" y2="0"/>
			<line class="st2" x1="64" y1="32" x2="0" y2="32"/>
		</g>
	</g>
</g>
<g id="boss-bot">
	<g id="editable" class="st3">
		<path class="st4" d="M18,30l0.3,29h27.3L46,30C46.2,12.6,17.8,12.6,18,30z"/>
		<g class="st5">
			<circle class="st6" cx="46.7" cy="7" r="2"/>
			<line class="st7" x1="46" y1="9" x2="40" y2="19"/>
		</g>
		<g class="st5">
			<circle class="st6" cx="16.9" cy="7" r="2"/>
			<line class="st7" x1="17.6" y1="9" x2="23.6" y2="19"/>
		</g>
		<path class="st8" d="M34.1,29.6c0-1-4.1-1-4.1,0"/>
		<g class="st5">
			<path class="st9" d="M39.2,28.6L39.2,28.6C39.2,28.6,39.2,28.6,39.2,28.6C39.2,28.6,39.2,28.6,39.2,28.6L39.2,28.6
				c-2.6,0-5.2,0.2-5.2,0.7c0.1,2.1,0.6,7.2,1.1,7.1c0,0.3,2,0.4,4,0.4v0c0,0,0,0,0,0s0,0,0,0v0c2,0,4-0.1,4-0.4
				c0.5,0.1,1.1-7.1,1.1-7.1S41.8,28.6,39.2,28.6z"/>
			<line class="st9" x1="44.4" y1="29.3" x2="46.4" y2="29.3"/>
		</g>
		<g class="st5">
			<path class="st9" d="M24.8,28.6L24.8,28.6C24.8,28.6,24.8,28.6,24.8,28.6C24.8,28.6,24.8,28.6,24.8,28.6L24.8,28.6
				c2.6,0,5.2,0.2,5.2,0.7c-0.1,2.1-0.6,7.2-1.1,7.1c0,0.3-2,0.4-4,0.4v0c0,0,0,0,0,0s0,0,0,0v0c-2,0-4-0.1-4-0.4
				c-0.5,0.1-1.1-7.1-1.1-7.1S22.2,28.6,24.8,28.6z"/>
			<line class="st9" x1="19.6" y1="29.3" x2="17.6" y2="29.3"/>
		</g>
		<g class="st5">
			<path class="st10" d="M42,48.6c0-4.8-20-4.8-20,0L22,59h20L42,48.6z"/>
			<line class="st7" x1="32" y1="59.2" x2="32" y2="45"/>
			<line class="st7" x1="37" y1="59" x2="37" y2="45.4"/>
			<line class="st7" x1="27" y1="59.2" x2="27" y2="45.4"/>
		</g>
	</g>
	<g id="expanded">
		<path class="st7" d="M46,30l-0.4,29H18.3L18,30C17.8,12.6,46.2,12.6,46,30z M46.7,5c-1.1,0-2,0.9-2,2s0.9,2,2,2s2-0.9,2-2
			S47.8,5,46.7,5z M46,9l-6,10 M14.9,7c0,1.1,0.9,2,2,2s2-0.9,2-2s-0.9-2-2-2S14.9,5.9,14.9,7z M17.6,9l6,10 M34.1,29.6
			c0-1-4.1-1-4.1,0 M39.2,28.6L39.2,28.6C39.2,28.6,39.2,28.6,39.2,28.6C39.2,28.6,39.2,28.6,39.2,28.6L39.2,28.6
			c-2.6,0-5.2,0.2-5.2,0.7c0.1,2.1,0.6,7.2,1.1,7.1c0,0.3,2,0.4,4,0.4v0c0,0,0,0,0,0s0,0,0,0v0c2,0,4-0.1,4-0.4
			c0.5,0.1,1.1-7.1,1.1-7.1S41.8,28.6,39.2,28.6z M44.4,29.3h2.1 M19.6,29.3c0,0,0.6,7.2,1.1,7.1c0,0.3,2,0.4,4,0.4v0c0,0,0,0,0,0
			s0,0,0,0v0c2,0,4-0.1,4-0.4c0.5,0.1,1-5,1.1-7.1c0-0.5-2.6-0.7-5.2-0.7v0c0,0,0,0,0,0s0,0,0,0v0C22.2,28.6,19.6,29.3,19.6,29.3z
			 M19.6,29.3h-2.1 M42,48.6c0-4.8-20-4.8-20,0L22,59h20L42,48.6z M32,59.2V45 M37,59V45.4 M27,59.2V45.4"/>
	</g>
</g>
<g id="boss-bot-color">
</g>
<g id="boss-bot-colorv1">
</g>
<g id="Leapfrog_Grid_1_">
</g>
<g id="teapot">
</g>
<g id="teapot-color">
</g>
<g id="Leapfrog_Grid_2_">
</g>
<g id="coffee-mug">
</g>
<g id="coffee-mug-color">
</g>
<g id="Leapfrog_Grid_3_">
</g>
<g id="car">
</g>
<g id="car-color">
</g>
<g id="Leapfrog_Grid_5_">
</g>
<g id="trash">
</g>
<g id="trash-color">
</g>
<g id="Leapfrog_Grid_4_">
</g>
<g id="folder">
</g>
<g id="Leapfrog_Grid_7_">
</g>
<g id="file">
</g>
<g id="Leapfrog_Grid_6_">
</g>
<g id="cocktail">
</g>
<g id="cocktail-color">
</g>
<g id="cocktail-final">
</g>
</svg>
