<?xml version="1.0" encoding="utf-8"?>
<!-- Generator: Adobe Illustrator 19.2.0, SVG Export Plug-In . SVG Version: 6.00 Build 0)  -->
<svg version="1.1" xmlns="http://www.w3.org/2000/svg" xmlns:xlink="http://www.w3.org/1999/xlink" x="0px" y="0px" width="64px"
	 height="64px" viewBox="0 0 64 64" style="enable-background:new 0 0 64 64;" xml:space="preserve">
<style type="text/css">
	.st0{fill:#98D9ED;}
	.st1{fill:none;stroke:#6D6E70;stroke-width:0.15;stroke-miterlimit:10;}
	.st2{fill:none;stroke:#6D6E70;stroke-width:0.25;stroke-miterlimit:10;}
	.st3{display:none;}
	.st4{display:inline;fill:none;stroke:#221F1F;stroke-width:2;stroke-miterlimit:10;}
	.st5{display:inline;}
	.st6{fill:none;stroke:#221F1F;stroke-width:2;stroke-linejoin:round;stroke-miterlimit:10;}
	.st7{fill:none;stroke:#221F1F;stroke-width:2;stroke-miterlimit:10;}
	.st8{display:inline;fill:none;stroke:#221F1F;stroke-width:2;stroke-linecap:round;stroke-linejoin:round;stroke-miterlimit:10;}
	.st9{fill:none;stroke:#221F1F;stroke-width:2;stroke-linecap:round;stroke-linejoin:round;stroke-miterlimit:10;}
	.st10{fill:#FFFFFF;stroke:#221F1F;stroke-width:2;stroke-miterlimit:10;}
	.st11{clip-path:url(#XMLID_26_);fill:#B8DDDB;}
	.st12{clip-path:url(#XMLID_26_);fill:#EDFBFC;}
	.st13{fill:#DBF0F3;stroke:#221F1F;stroke-width:2;stroke-miterlimit:10;}
	.st14{fill:#FFFFFF;stroke:#000000;stroke-width:2;stroke-linecap:round;stroke-linejoin:round;stroke-miterlimit:10;}
	.st15{clip-path:url(#XMLID_27_);fill:#E8E8E8;}
	.st16{clip-path:url(#XMLID_28_);fill:#E8E8E8;}
	.st17{fill:#DBF0F3;stroke:#000000;stroke-width:2;stroke-linejoin:round;stroke-miterlimit:10;}
	.st18{fill:#DBF0F3;stroke:#000000;stroke-width:2;stroke-miterlimit:10;}
	.st19{clip-path:url(#XMLID_29_);fill:#B8DDDB;}
	.st20{clip-path:url(#XMLID_29_);fill:#EDFBFC;}
	.st21{fill:#DBF0F3;stroke:#000000;stroke-width:1.4;stroke-linejoin:round;stroke-miterlimit:10;}
	.st22{fill:#DBF0F3;stroke:#000000;stroke-width:1.4;stroke-miterlimit:10;}
	.st23{fill:#FFFFFF;stroke:#000000;stroke-width:1.4;stroke-linecap:round;stroke-linejoin:round;stroke-miterlimit:10;}
	.st24{clip-path:url(#XMLID_30_);fill:#E8E8E8;}
	.st25{clip-path:url(#XMLID_31_);fill:#E8E8E8;}
	.st26{fill:#DBF0F3;stroke:#221F1F;stroke-width:1.4;stroke-miterlimit:10;}
	.st27{fill:#EDFBFC;}
	.st28{display:inline;fill:none;stroke:#221F1F;stroke-width:2;stroke-linecap:round;stroke-miterlimit:10;}
	.st29{display:inline;fill:none;stroke:#221F1F;stroke-width:2;stroke-linejoin:round;stroke-miterlimit:10;}
	.st30{fill:#221F1F;}
	.st31{clip-path:url(#XMLID_32_);fill:#EDFBFC;}
	.st32{clip-path:url(#XMLID_33_);fill:#B8DDDB;}
	.st33{clip-path:url(#XMLID_33_);fill:#EDFBFC;}
	.st34{clip-path:url(#XMLID_34_);fill:#EDFBFC;}
	.st35{clip-path:url(#XMLID_34_);fill:#B8DDDB;}
	.st36{clip-path:url(#XMLID_35_);fill:#EDFBFC;}
	.st37{clip-path:url(#XMLID_35_);fill:#B8DDDB;}
	.st38{clip-path:url(#XMLID_36_);fill:#B8DDDB;}
	.st39{clip-path:url(#XMLID_37_);}
	.st40{fill:#E8E8E8;}
	.st41{fill:#DBF0F3;}
	.st42{clip-path:url(#XMLID_38_);fill:#B8DDDB;}
	.st43{display:none;fill:none;stroke:#221F1F;stroke-width:2;stroke-miterlimit:10;}
	.st44{clip-path:url(#XMLID_39_);fill:#EDFBFC;}
	.st45{clip-path:url(#XMLID_40_);fill:#E8E8E8;}
	.st46{fill:#B8DDDB;}
	.st47{fill:none;stroke:#000000;stroke-width:2;stroke-linejoin:round;stroke-miterlimit:10;}
	.st48{clip-path:url(#XMLID_41_);fill:#B8DDDB;}
	.st49{clip-path:url(#XMLID_41_);fill:#EDFBFC;}
	.st50{clip-path:url(#XMLID_42_);fill:#B8DDDB;}
	.st51{clip-path:url(#XMLID_42_);fill:#EDFBFC;}
	.st52{clip-path:url(#XMLID_43_);fill:#B8DDDB;}
	.st53{clip-path:url(#XMLID_43_);fill:#EDFBFC;}
	.st54{display:inline;fill:none;stroke:#000000;stroke-width:2;stroke-linejoin:round;stroke-miterlimit:10;}
	.st55{display:none;fill:none;stroke:#221F1F;stroke-width:2;stroke-linecap:round;stroke-linejoin:round;stroke-miterlimit:10;}
	.st56{clip-path:url(#XMLID_44_);fill:#E8E8E8;}
	.st57{clip-path:url(#XMLID_44_);fill:#FFFFFF;}
	.st58{clip-path:url(#XMLID_45_);fill:#B8DDDB;}
	.st59{clip-path:url(#XMLID_45_);fill:#F5FCFC;}
	.st60{clip-path:url(#XMLID_46_);fill:#B8DDDB;}
	.st61{fill:#F4C689;stroke:#F4BC7D;stroke-miterlimit:10;}
	.st62{fill:#EFBB6A;stroke:#EAF3F4;stroke-linecap:round;stroke-linejoin:round;stroke-miterlimit:10;}
	.st63{fill:none;stroke:#AE8DE2;stroke-linecap:round;stroke-linejoin:round;stroke-miterlimit:10;}
	.st64{opacity:0.7;}
	.st65{clip-path:url(#XMLID_47_);fill:#C5F4F9;}
	.st66{clip-path:url(#XMLID_47_);fill:#FFFFFF;}
	.st67{fill:#F2F8F9;stroke:#A6DDDB;stroke-width:0.6;stroke-linecap:round;stroke-linejoin:round;stroke-miterlimit:10;}
	.st68{opacity:0.8;}
	.st69{opacity:0.6;clip-path:url(#XMLID_48_);fill:#95E597;}
	.st70{clip-path:url(#XMLID_48_);fill:#CBF4C9;}
	.st71{clip-path:url(#XMLID_49_);fill:#B8DDDB;}
	
		.st72{display:inline;fill:none;stroke:#221F1F;stroke-width:1.2;stroke-linecap:round;stroke-linejoin:round;stroke-miterlimit:10;}
	.st73{fill:none;stroke:#221F1F;stroke-width:1.2;stroke-linecap:round;stroke-linejoin:round;stroke-miterlimit:10;}
</style>
<g id="Leapfrog_Grid">
</g>
<g id="boss-bot">
</g>
<g id="boss-bot-color">
</g>
<g id="boss-bot-colorv1">
</g>
<g id="Leapfrog_Grid_1_">
</g>
<g id="teapot">
</g>
<g id="teapot-color">
</g>
<g id="Leapfrog_Grid_2_">
</g>
<g id="coffee-mug">
</g>
<g id="coffee-mug-color">
</g>
<g id="Leapfrog_Grid_3_">
</g>
<g id="car">
</g>
<g id="car-color">
</g>
<g id="Leapfrog_Grid_5_">
</g>
<g id="trash">
</g>
<g id="trash-color">
</g>
<g id="Leapfrog_Grid_4_">
</g>
<g id="folder">
</g>
<g id="Leapfrog_Grid_7_">
</g>
<g id="file">
</g>
<g id="Leapfrog_Grid_6_">
</g>
<g id="cocktail">
</g>
<g id="cocktail-color">
</g>
<g id="cocktail-final">
	<g>
		<g>
			<ellipse transform="matrix(0.937 -0.3493 0.3493 0.937 -3.1627 16.4451)" class="st61" cx="44" cy="17" rx="6.5" ry="6.5"/>
		</g>
		<g>
			<line class="st62" x1="44.1" y1="17.2" x2="45.7" y2="21.5"/>
			<line class="st62" x1="44.1" y1="17.2" x2="48.8" y2="17"/>
			<line class="st62" x1="44.1" y1="17.2" x2="45.3" y2="12.6"/>
			<line class="st62" x1="44.1" y1="17.2" x2="40.2" y2="14.6"/>
			<line class="st62" x1="44.1" y1="17.2" x2="40.4" y2="20.1"/>
		</g>
	</g>
	<polyline class="st63" points="10,5.1 18.7,10.2 38.8,57.6 	"/>
	<g class="st64">
		<defs>
			<path id="XMLID_23_" class="st64" d="M40,59c-5.4,1.9-10.7,1.9-16,0l-4-42h24L40,59z"/>
		</defs>
		<use xlink:href="#XMLID_23_"  style="overflow:visible;fill:#D7F9FF;"/>
		<clipPath id="XMLID_26_">
			<use xlink:href="#XMLID_23_"  style="overflow:visible;"/>
		</clipPath>
		<path style="clip-path:url(#XMLID_26_);fill:#C5F4F9;" d="M40,59l4-42h-5.2c-0.1,14-1.3,28-3.7,42H40z"/>
		<path style="clip-path:url(#XMLID_26_);fill:#FFFFFF;" d="M27.3,56.9L27.3,56.9c-0.5,0.1-1-0.3-1.1-0.9l-3.8-35.8
			c-0.1-0.5,0.3-1,0.9-1.1h0c0.5-0.1,1,0.3,1.1,0.9l3.8,35.8C28.3,56.3,27.9,56.8,27.3,56.9z"/>
		<use xlink:href="#XMLID_23_"  style="overflow:visible;fill:none;stroke:#9DDCE0;stroke-linejoin:round;stroke-miterlimit:10;"/>
	</g>
	<g>
		<polygon class="st67" points="38.8,32.1 36.9,34.4 35.7,31.2 37.6,28.9 		"/>
		<polygon class="st67" points="35.5,31.5 33.6,33.8 32.5,30.6 34.4,28.3 		"/>
		<polygon class="st67" points="34.4,28.3 35.4,31.5 38.8,32.1 37.6,28.9 		"/>
		<polygon class="st67" points="33.6,33.8 35.4,31.5 38.8,32.1 36.9,34.4 		"/>
	</g>
	<g>
		<polygon class="st67" points="28,35.8 25.5,33.5 29.3,32.4 31.8,34.7 		"/>
		<polygon class="st67" points="28.9,32.1 26.4,29.8 30.2,28.7 32.6,31 		"/>
		<polygon class="st67" points="32.6,31 28.9,32 28,35.8 31.8,34.7 		"/>
		<polygon class="st67" points="26.4,29.8 28.9,32 28,35.8 25.5,33.5 		"/>
	</g>
	<g class="st68">
		<defs>
			<path id="XMLID_22_" class="st68" d="M24,58.8c5.3,1.5,10.7,1.5,16,0l2.6-26.9l0,0c-3.3-1.6-6.8-1.7-10.6,0
				c-3.7,1.9-7.2,2.1-10.5,0.1L24,58.8z"/>
		</defs>
		<use xlink:href="#XMLID_22_"  style="overflow:visible;fill:#9CEF9A;"/>
		<clipPath id="XMLID_27_">
			<use xlink:href="#XMLID_22_"  style="overflow:visible;"/>
		</clipPath>
		<path style="opacity:0.6;clip-path:url(#XMLID_27_);fill:#95E597;" d="M44,16.6h-5.2c-0.1,13.8-0.2,27.8-2.5,41.6
			c-2.6,2-12.2,0.7-12.2,0.7c5.3,1.5,10.7,1.5,16,0l0.1-1.3c0,0,0,0,0,0L44,16.6z"/>
		<path style="clip-path:url(#XMLID_27_);fill:#CBF4C9;" d="M27.3,56.5L27.3,56.5c-0.5,0.1-1-0.3-1.1-0.9l-3.8-35.8
			c-0.1-0.5,0.3-1,0.9-1.1h0c0.5-0.1,1,0.3,1.1,0.9l3.8,35.8C28.2,55.9,27.8,56.4,27.3,56.5z"/>
	</g>
	<g class="st3">
		<g class="st5">
			<defs>
				<path id="XMLID_21_" d="M50.5,12.5c-2.5-3.6-7.5-4.5-11.1-2c-3.6,2.5-4.5,7.5-2,11.1c0.1,0.2,0.3,0.4,0.4,0.5l6.2-5.4l0.6,8.2
					c1.3-0.1,2.7-0.6,3.9-1.4C52.1,21.1,53,16.1,50.5,12.5z"/>
			</defs>
			<use xlink:href="#XMLID_21_"  style="overflow:visible;fill:#DBF0F3;"/>
			<clipPath id="XMLID_28_">
				<use xlink:href="#XMLID_21_"  style="overflow:visible;"/>
			</clipPath>
			<path style="clip-path:url(#XMLID_28_);fill:#B8DDDB;" d="M45.8,9.3l-1.7,8.8l0.5,6.9c1.3-0.1,2.7-0.6,3.9-1.4
				c3.6-2.5,4.5-7.5,2-11.1C48.9,10.3,48.3,9.4,45.8,9.3z"/>
			
				<use xlink:href="#XMLID_21_"  style="overflow:visible;fill:none;stroke:#221F1F;stroke-width:1.2;stroke-linecap:round;stroke-linejoin:round;stroke-miterlimit:10;"/>
		</g>
		<line class="st72" x1="44.1" y1="16.9" x2="36.5" y2="16.9"/>
		<line class="st73" x1="44.1" y1="16.9" x2="41.7" y2="24.1"/>
		<line class="st72" x1="44.1" y1="16.9" x2="50.2" y2="21.3"/>
		<line class="st72" x1="44.1" y1="16.9" x2="50.2" y2="12.4"/>
		<line class="st72" x1="44.1" y1="16.9" x2="41.7" y2="9.7"/>
	</g>
</g>
</svg>
