<?xml version="1.0" encoding="utf-8"?>
<!-- Generator: Adobe Illustrator 19.2.0, SVG Export Plug-In . SVG Version: 6.00 Build 0)  -->
<svg version="1.1" xmlns="http://www.w3.org/2000/svg" xmlns:xlink="http://www.w3.org/1999/xlink" x="0px" y="0px" width="64px"
	 height="64px" viewBox="0 0 64 64" style="enable-background:new 0 0 64 64;" xml:space="preserve">
<style type="text/css">
	.st0{fill:#98D9ED;}
	.st1{fill:none;stroke:#6D6E70;stroke-width:0.15;stroke-miterlimit:10;}
	.st2{fill:none;stroke:#6D6E70;stroke-width:0.25;stroke-miterlimit:10;}
	.st3{display:none;}
	.st4{display:inline;fill:none;stroke:#221F1F;stroke-width:2;stroke-miterlimit:10;}
	.st5{display:inline;}
	.st6{fill:none;stroke:#221F1F;stroke-width:2;stroke-linejoin:round;stroke-miterlimit:10;}
	.st7{fill:none;stroke:#221F1F;stroke-width:2;stroke-miterlimit:10;}
	.st8{display:inline;fill:none;stroke:#221F1F;stroke-width:2;stroke-linecap:round;stroke-linejoin:round;stroke-miterlimit:10;}
	.st9{fill:none;stroke:#221F1F;stroke-width:2;stroke-linecap:round;stroke-linejoin:round;stroke-miterlimit:10;}
	.st10{fill:#FFFFFF;stroke:#221F1F;stroke-width:2;stroke-miterlimit:10;}
	.st11{clip-path:url(#XMLID_26_);fill:#B8DDDB;}
	.st12{clip-path:url(#XMLID_26_);fill:#EDFBFC;}
	.st13{fill:#DBF0F3;stroke:#221F1F;stroke-width:2;stroke-miterlimit:10;}
	.st14{fill:#FFFFFF;stroke:#000000;stroke-width:2;stroke-linecap:round;stroke-linejoin:round;stroke-miterlimit:10;}
	.st15{clip-path:url(#XMLID_27_);fill:#E8E8E8;}
	.st16{clip-path:url(#XMLID_28_);fill:#E8E8E8;}
	.st17{fill:#DBF0F3;stroke:#000000;stroke-width:2;stroke-linejoin:round;stroke-miterlimit:10;}
	.st18{fill:#DBF0F3;stroke:#000000;stroke-width:2;stroke-miterlimit:10;}
	.st19{clip-path:url(#XMLID_29_);fill:#B8DDDB;}
	.st20{clip-path:url(#XMLID_29_);fill:#EDFBFC;}
	.st21{fill:#DBF0F3;stroke:#000000;stroke-width:1.4;stroke-linejoin:round;stroke-miterlimit:10;}
	.st22{fill:#DBF0F3;stroke:#000000;stroke-width:1.4;stroke-miterlimit:10;}
	.st23{fill:#FFFFFF;stroke:#000000;stroke-width:1.4;stroke-linecap:round;stroke-linejoin:round;stroke-miterlimit:10;}
	.st24{clip-path:url(#XMLID_30_);fill:#E8E8E8;}
	.st25{clip-path:url(#XMLID_31_);fill:#E8E8E8;}
	.st26{fill:#DBF0F3;stroke:#221F1F;stroke-width:1.4;stroke-miterlimit:10;}
	.st27{fill:#EDFBFC;}
	.st28{display:inline;fill:none;stroke:#221F1F;stroke-width:2;stroke-linecap:round;stroke-miterlimit:10;}
	.st29{display:inline;fill:none;stroke:#221F1F;stroke-width:2;stroke-linejoin:round;stroke-miterlimit:10;}
	.st30{fill:#221F1F;}
	.st31{clip-path:url(#XMLID_32_);fill:#EDFBFC;}
	.st32{clip-path:url(#XMLID_33_);fill:#B8DDDB;}
	.st33{clip-path:url(#XMLID_33_);fill:#EDFBFC;}
	.st34{clip-path:url(#XMLID_34_);fill:#EDFBFC;}
	.st35{clip-path:url(#XMLID_34_);fill:#B8DDDB;}
	.st36{clip-path:url(#XMLID_35_);fill:#EDFBFC;}
	.st37{clip-path:url(#XMLID_35_);fill:#B8DDDB;}
	.st38{clip-path:url(#XMLID_36_);fill:#B8DDDB;}
	.st39{clip-path:url(#XMLID_37_);}
	.st40{fill:#E8E8E8;}
	.st41{fill:#DBF0F3;}
	.st42{clip-path:url(#XMLID_38_);fill:#B8DDDB;}
	.st43{display:none;fill:none;stroke:#221F1F;stroke-width:2;stroke-miterlimit:10;}
	.st44{clip-path:url(#XMLID_39_);fill:#EDFBFC;}
	.st45{clip-path:url(#XMLID_40_);fill:#E8E8E8;}
	.st46{fill:#B8DDDB;}
	.st47{fill:none;stroke:#000000;stroke-width:2;stroke-linejoin:round;stroke-miterlimit:10;}
	.st48{clip-path:url(#XMLID_41_);fill:#B8DDDB;}
	.st49{clip-path:url(#XMLID_41_);fill:#EDFBFC;}
	.st50{clip-path:url(#XMLID_42_);fill:#B8DDDB;}
	.st51{clip-path:url(#XMLID_42_);fill:#EDFBFC;}
	.st52{clip-path:url(#XMLID_43_);fill:#B8DDDB;}
	.st53{clip-path:url(#XMLID_43_);fill:#EDFBFC;}
	.st54{display:inline;fill:none;stroke:#000000;stroke-width:2;stroke-linejoin:round;stroke-miterlimit:10;}
	.st55{display:none;fill:none;stroke:#221F1F;stroke-width:2;stroke-linecap:round;stroke-linejoin:round;stroke-miterlimit:10;}
	.st56{clip-path:url(#XMLID_44_);fill:#E8E8E8;}
	.st57{clip-path:url(#XMLID_44_);fill:#FFFFFF;}
	.st58{clip-path:url(#XMLID_45_);fill:#B8DDDB;}
	.st59{clip-path:url(#XMLID_45_);fill:#F5FCFC;}
	.st60{clip-path:url(#XMLID_46_);fill:#B8DDDB;}
	.st61{fill:#F4C689;stroke:#F4BC7D;stroke-miterlimit:10;}
	.st62{fill:#EFBB6A;stroke:#EAF3F4;stroke-linecap:round;stroke-linejoin:round;stroke-miterlimit:10;}
	.st63{fill:none;stroke:#AE8DE2;stroke-linecap:round;stroke-linejoin:round;stroke-miterlimit:10;}
	.st64{opacity:0.7;}
	.st65{clip-path:url(#XMLID_47_);fill:#C5F4F9;}
	.st66{clip-path:url(#XMLID_47_);fill:#FFFFFF;}
	.st67{fill:#F2F8F9;stroke:#A6DDDB;stroke-width:0.6;stroke-linecap:round;stroke-linejoin:round;stroke-miterlimit:10;}
	.st68{opacity:0.8;}
	.st69{opacity:0.6;clip-path:url(#XMLID_48_);fill:#95E597;}
	.st70{clip-path:url(#XMLID_48_);fill:#CBF4C9;}
	.st71{clip-path:url(#XMLID_49_);fill:#B8DDDB;}
	
		.st72{display:inline;fill:none;stroke:#221F1F;stroke-width:1.2;stroke-linecap:round;stroke-linejoin:round;stroke-miterlimit:10;}
	.st73{fill:none;stroke:#221F1F;stroke-width:1.2;stroke-linecap:round;stroke-linejoin:round;stroke-miterlimit:10;}
</style>
<g id="Leapfrog_Grid">
</g>
<g id="boss-bot">
</g>
<g id="boss-bot-color">
</g>
<g id="boss-bot-colorv1">
</g>
<g id="Leapfrog_Grid_1_">
</g>
<g id="teapot">
</g>
<g id="teapot-color">
</g>
<g id="Leapfrog_Grid_2_">
	<g id="Grid_2_">
		<path id="nogo_zone_1_" class="st0" d="M60,0H4H0v4v56v4h4h56h4v-4V4V0H60z M60,60H4V4h56V60z"/>
		<g id="odd-shape_grid_1_">
			<rect x="4" y="4" class="st1" width="8" height="56"/>
			<rect x="52" y="4" class="st1" width="8" height="56"/>
			<rect x="28" y="28" transform="matrix(-1.346054e-10 1 -1 -1.346054e-10 88 24)" class="st1" width="8" height="56"/>
			<rect x="28" y="-20" transform="matrix(-1.346054e-10 1 -1 -1.346054e-10 40 -24)" class="st1" width="8" height="56"/>
		</g>
		<circle id="circle_1_" class="st1" cx="32" cy="32" r="28"/>
		<g id="diagonals_1_">
			<line class="st1" x1="0" y1="64" x2="64" y2="0"/>
			<line class="st1" x1="64" y1="64" x2="0" y2="0"/>
		</g>
		<g id="mid_sections_1_">
			<line class="st2" x1="32" y1="64" x2="32" y2="0"/>
			<line class="st2" x1="64" y1="32" x2="0" y2="32"/>
		</g>
	</g>
</g>
<g id="coffee-mug">
	<g id="editable_2_" class="st3">
		<line class="st4" x1="21.3" y1="19.5" x2="27.3" y2="19.5"/>
		<path class="st8" d="M42.5,20.6c2.6-0.4,5.3-1.6,8.1-3.4c1.3,6.6,2.9,12.3,5.3,16.4c0.4,0.7,1.6,1.1,2.6,1.6"/>
		<polygon class="st4" points="18.5,15 21.2,19.4 21.3,25 42.5,25 42.5,16.1 		"/>
		<path class="st4" d="M42.7,25.1L21.4,25c-5.1,3.3-8.4,9-8.4,15.4C13,50.7,21.5,59,32,59s19-8.3,19-18.6C51,34,47.7,28.4,42.7,25.1
			z"/>
		<path class="st8" d="M50.9,39c-6.2-1.3-12.5-1.5-19,0c-5.5,1.3-12,1.1-18.8,0c0,0.5-0.1,0.9-0.1,1.4C13,50.7,21.5,59,32,59
			s19-8.3,19-18.6C51,39.9,51,39.5,50.9,39z"/>
	</g>
	<g id="expanded_2_">
		<path class="st30" d="M32,60c-11,0-20-8.8-20-19.6c0,0,0,0,0,0c0-0.5,0-1,0.1-1.5l0.1-1.1l0,0c0.7-5.3,3.6-10.1,8.1-13.3l0-4.9
			l-3.6-5.8l26.9,1.2v4.3c2.1-0.5,4.3-1.5,6.6-3l1.2-0.8l0.3,1.4c1.5,7.6,3.1,12.5,5.2,16.1c0.2,0.3,0.8,0.6,1.4,0.9
			c0.3,0.1,0.6,0.3,0.8,0.4l-1,1.8c-0.2-0.1-0.5-0.2-0.7-0.4c-0.9-0.4-1.7-0.8-2.2-1.6c-2.1-3.5-3.7-8.3-5.1-15.3
			c-2.3,1.3-4.4,2.2-6.4,2.6v3c4.7,3.2,7.7,8.3,8.4,13.8l0,0l0,0.3c0.1,0.6,0.1,1.3,0.1,1.9C52,51.2,43,60,32,60z M14,40.4
			C14,50.1,22.1,58,32,58s18-7.9,18-17.6c0-0.2,0-0.4,0-0.6c-6.2-1.3-12.1-1.2-17.9,0.2c-5,1.2-10.9,1.3-18.1,0.2
			C14,40.3,14,40.3,14,40.4C14,40.4,14,40.4,14,40.4z M14.1,38.2c7,1,12.7,1,17.5-0.2c5.9-1.4,11.8-1.5,18.1-0.3
			c-0.7-4.7-3.4-8.9-7.4-11.7l-20.7,0C17.5,28.9,14.8,33.3,14.1,38.2z M24.1,24h17.4v-7l-21.1-0.9l1.5,2.4h5.5v2h-5.1l0,3.5L24.1,24
			z"/>
	</g>
</g>
<g id="coffee-mug-color">
</g>
<g id="Leapfrog_Grid_3_">
</g>
<g id="car">
</g>
<g id="car-color">
</g>
<g id="Leapfrog_Grid_5_">
</g>
<g id="trash">
</g>
<g id="trash-color">
</g>
<g id="Leapfrog_Grid_4_">
</g>
<g id="folder">
</g>
<g id="Leapfrog_Grid_7_">
</g>
<g id="file">
</g>
<g id="Leapfrog_Grid_6_">
</g>
<g id="cocktail">
</g>
<g id="cocktail-color">
</g>
<g id="cocktail-final">
</g>
</svg>
