<?xml version="1.0" encoding="utf-8"?>
<!-- Generator: Adobe Illustrator 19.2.0, SVG Export Plug-In . SVG Version: 6.00 Build 0)  -->
<svg version="1.1" xmlns="http://www.w3.org/2000/svg" xmlns:xlink="http://www.w3.org/1999/xlink" x="0px" y="0px" width="64px"
	 height="64px" viewBox="0 0 64 64" style="enable-background:new 0 0 64 64;" xml:space="preserve">
<style type="text/css">
	.st0{fill:#98D9ED;}
	.st1{fill:none;stroke:#6D6E70;stroke-width:0.15;stroke-miterlimit:10;}
	.st2{fill:none;stroke:#6D6E70;stroke-width:0.25;stroke-miterlimit:10;}
	.st3{display:none;}
	.st4{display:inline;fill:none;stroke:#221F1F;stroke-width:2;stroke-miterlimit:10;}
	.st5{display:inline;}
	.st6{fill:none;stroke:#221F1F;stroke-width:2;stroke-linejoin:round;stroke-miterlimit:10;}
	.st7{fill:none;stroke:#221F1F;stroke-width:2;stroke-miterlimit:10;}
	.st8{display:inline;fill:none;stroke:#221F1F;stroke-width:2;stroke-linecap:round;stroke-linejoin:round;stroke-miterlimit:10;}
	.st9{fill:none;stroke:#221F1F;stroke-width:2;stroke-linecap:round;stroke-linejoin:round;stroke-miterlimit:10;}
	.st10{fill:#FFFFFF;stroke:#221F1F;stroke-width:2;stroke-miterlimit:10;}
	.st11{clip-path:url(#XMLID_26_);fill:#B8DDDB;}
	.st12{clip-path:url(#XMLID_26_);fill:#EDFBFC;}
	.st13{fill:#DBF0F3;stroke:#221F1F;stroke-width:2;stroke-miterlimit:10;}
	.st14{fill:#FFFFFF;stroke:#000000;stroke-width:2;stroke-linecap:round;stroke-linejoin:round;stroke-miterlimit:10;}
	.st15{clip-path:url(#XMLID_27_);fill:#E8E8E8;}
	.st16{clip-path:url(#XMLID_28_);fill:#E8E8E8;}
	.st17{fill:#DBF0F3;stroke:#000000;stroke-width:2;stroke-linejoin:round;stroke-miterlimit:10;}
	.st18{fill:#DBF0F3;stroke:#000000;stroke-width:2;stroke-miterlimit:10;}
	.st19{clip-path:url(#XMLID_29_);fill:#B8DDDB;}
	.st20{clip-path:url(#XMLID_29_);fill:#EDFBFC;}
	.st21{fill:#DBF0F3;stroke:#000000;stroke-width:1.4;stroke-linejoin:round;stroke-miterlimit:10;}
	.st22{fill:#DBF0F3;stroke:#000000;stroke-width:1.4;stroke-miterlimit:10;}
	.st23{fill:#FFFFFF;stroke:#000000;stroke-width:1.4;stroke-linecap:round;stroke-linejoin:round;stroke-miterlimit:10;}
	.st24{clip-path:url(#XMLID_30_);fill:#E8E8E8;}
	.st25{clip-path:url(#XMLID_31_);fill:#E8E8E8;}
	.st26{fill:#DBF0F3;stroke:#221F1F;stroke-width:1.4;stroke-miterlimit:10;}
	.st27{fill:#EDFBFC;}
	.st28{display:inline;fill:none;stroke:#221F1F;stroke-width:2;stroke-linecap:round;stroke-miterlimit:10;}
	.st29{display:inline;fill:none;stroke:#221F1F;stroke-width:2;stroke-linejoin:round;stroke-miterlimit:10;}
	.st30{fill:#221F1F;}
	.st31{clip-path:url(#XMLID_32_);fill:#EDFBFC;}
	.st32{clip-path:url(#XMLID_33_);fill:#B8DDDB;}
	.st33{clip-path:url(#XMLID_33_);fill:#EDFBFC;}
	.st34{clip-path:url(#XMLID_34_);fill:#EDFBFC;}
	.st35{clip-path:url(#XMLID_34_);fill:#B8DDDB;}
	.st36{clip-path:url(#XMLID_35_);fill:#EDFBFC;}
	.st37{clip-path:url(#XMLID_35_);fill:#B8DDDB;}
	.st38{clip-path:url(#XMLID_36_);fill:#B8DDDB;}
	.st39{clip-path:url(#XMLID_37_);}
	.st40{fill:#E8E8E8;}
	.st41{fill:#DBF0F3;}
	.st42{clip-path:url(#XMLID_38_);fill:#B8DDDB;}
	.st43{display:none;fill:none;stroke:#221F1F;stroke-width:2;stroke-miterlimit:10;}
	.st44{clip-path:url(#XMLID_39_);fill:#EDFBFC;}
	.st45{clip-path:url(#XMLID_40_);fill:#E8E8E8;}
	.st46{fill:#B8DDDB;}
	.st47{fill:none;stroke:#000000;stroke-width:2;stroke-linejoin:round;stroke-miterlimit:10;}
	.st48{clip-path:url(#XMLID_41_);fill:#B8DDDB;}
	.st49{clip-path:url(#XMLID_41_);fill:#EDFBFC;}
	.st50{clip-path:url(#XMLID_42_);fill:#B8DDDB;}
	.st51{clip-path:url(#XMLID_42_);fill:#EDFBFC;}
	.st52{clip-path:url(#XMLID_43_);fill:#B8DDDB;}
	.st53{clip-path:url(#XMLID_43_);fill:#EDFBFC;}
	.st54{display:inline;fill:none;stroke:#000000;stroke-width:2;stroke-linejoin:round;stroke-miterlimit:10;}
	.st55{display:none;fill:none;stroke:#221F1F;stroke-width:2;stroke-linecap:round;stroke-linejoin:round;stroke-miterlimit:10;}
	.st56{clip-path:url(#XMLID_44_);fill:#E8E8E8;}
	.st57{clip-path:url(#XMLID_44_);fill:#FFFFFF;}
	.st58{clip-path:url(#XMLID_45_);fill:#B8DDDB;}
	.st59{clip-path:url(#XMLID_45_);fill:#F5FCFC;}
	.st60{clip-path:url(#XMLID_46_);fill:#B8DDDB;}
	.st61{fill:#F4C689;stroke:#F4BC7D;stroke-miterlimit:10;}
	.st62{fill:#EFBB6A;stroke:#EAF3F4;stroke-linecap:round;stroke-linejoin:round;stroke-miterlimit:10;}
	.st63{fill:none;stroke:#AE8DE2;stroke-linecap:round;stroke-linejoin:round;stroke-miterlimit:10;}
	.st64{opacity:0.7;}
	.st65{clip-path:url(#XMLID_47_);fill:#C5F4F9;}
	.st66{clip-path:url(#XMLID_47_);fill:#FFFFFF;}
	.st67{fill:#F2F8F9;stroke:#A6DDDB;stroke-width:0.6;stroke-linecap:round;stroke-linejoin:round;stroke-miterlimit:10;}
	.st68{opacity:0.8;}
	.st69{opacity:0.6;clip-path:url(#XMLID_48_);fill:#95E597;}
	.st70{clip-path:url(#XMLID_48_);fill:#CBF4C9;}
	.st71{clip-path:url(#XMLID_49_);fill:#B8DDDB;}
	
		.st72{display:inline;fill:none;stroke:#221F1F;stroke-width:1.2;stroke-linecap:round;stroke-linejoin:round;stroke-miterlimit:10;}
	.st73{fill:none;stroke:#221F1F;stroke-width:1.2;stroke-linecap:round;stroke-linejoin:round;stroke-miterlimit:10;}
</style>
<g id="Leapfrog_Grid">
</g>
<g id="boss-bot">
</g>
<g id="boss-bot-color">
</g>
<g id="boss-bot-colorv1">
</g>
<g id="Leapfrog_Grid_1_">
</g>
<g id="teapot">
</g>
<g id="teapot-color">
</g>
<g id="Leapfrog_Grid_2_">
</g>
<g id="coffee-mug">
</g>
<g id="coffee-mug-color">
</g>
<g id="Leapfrog_Grid_3_">
</g>
<g id="car">
</g>
<g id="car-color">
</g>
<g id="Leapfrog_Grid_5_">
</g>
<g id="trash">
</g>
<g id="trash-color">
</g>
<g id="Leapfrog_Grid_4_">
</g>
<g id="folder">
</g>
<g id="Leapfrog_Grid_7_">
</g>
<g id="file">
</g>
<g id="Leapfrog_Grid_6_">
	<g id="Grid_7_">
		<path id="nogo_zone_7_" class="st0" d="M59.9,0h-56h-4v4v56v4h4h56h4v-4V4V0H59.9z M59.9,60h-56V4h56V60z"/>
		<g id="odd-shape_grid_7_">
			<rect x="3.9" y="4" class="st1" width="8" height="56"/>
			<rect x="51.9" y="4" class="st1" width="8" height="56"/>
			
				<rect x="27.9" y="28" transform="matrix(-1.346054e-10 1 -1 -1.346054e-10 87.8588 24.1412)" class="st1" width="8" height="56"/>
			
				<rect x="27.9" y="-20" transform="matrix(-1.346054e-10 1 -1 -1.346054e-10 39.8588 -23.8588)" class="st1" width="8" height="56"/>
		</g>
		<circle id="circle_7_" class="st1" cx="31.9" cy="32" r="28"/>
		<g id="diagonals_7_">
			<line class="st1" x1="-0.1" y1="64" x2="63.9" y2="0"/>
			<line class="st1" x1="63.9" y1="64" x2="-0.1" y2="0"/>
		</g>
		<g id="mid_sections_7_">
			<line class="st2" x1="31.9" y1="64" x2="31.9" y2="0"/>
			<line class="st2" x1="63.9" y1="32" x2="-0.1" y2="32"/>
		</g>
	</g>
</g>
<g id="cocktail">
	<g id="editable_8_" class="st3">
		<polygon class="st29" points="40,58.8 24,58.8 20,16.8 44,16.8 		"/>
		<path class="st29" d="M24,58.8h16l2.6-26.9l0,0c-3.3-1.6-6.8-1.7-10.6,0c-3.7,1.9-7.2,2.1-10.5,0.1L24,58.8z"/>
		<polyline class="st8" points="10,5.1 18.7,10.2 38.8,57.6 		"/>
	</g>
	<g id="expanded_6_">
		<path class="st30" d="M40,59.8H24c-0.5,0-0.9-0.4-1-0.9l-4-42c0-0.3,0.1-0.6,0.3-0.8c0.2-0.2,0.5-0.3,0.7-0.3L18,10.9l-8.5-5
			l1-1.7l8.7,5.2c0.2,0.1,0.3,0.3,0.4,0.5l2.5,6H44c0.3,0,0.6,0.1,0.7,0.3s0.3,0.5,0.3,0.8l-4,42c0,0,0,0.1,0,0.1l0,0c0,0,0,0,0,0v0
			c0,0,0,0,0,0C40.9,59.5,40.5,59.8,40,59.8z M38.2,57.8h0.9l0-0.4L38.2,57.8z M24.9,57.8h12.8l-10-23.5c-1.8,0.2-3.5,0-5.2-0.6
			L24.9,57.8z M29.8,33.8l9.5,22.3l2.3-23.7c-3-1.2-5.9-1.1-9.1,0.3C31.5,33.2,30.7,33.6,29.8,33.8z M22.4,31.3c1.5,0.8,3,1.1,4.6,1
			l-5.8-13.8L22.4,31.3z M23,17.8L29,32c0.8-0.2,1.7-0.6,2.5-1c3.5-1.6,6.9-1.8,10.2-0.6l1.2-12.6H23z"/>
	</g>
	<g class="st3">
		<line class="st8" x1="44.1" y1="16.9" x2="36.5" y2="16.9"/>
		<line class="st9" x1="44.1" y1="16.9" x2="41.7" y2="24.1"/>
		<line class="st8" x1="44.1" y1="16.9" x2="50.2" y2="21.3"/>
		<line class="st8" x1="44.1" y1="16.9" x2="50.2" y2="12.4"/>
		<line class="st8" x1="44.1" y1="16.9" x2="41.7" y2="9.7"/>
	</g>
	<path class="st55" d="M50.5,12.5c-2.5-3.6-7.5-4.5-11.1-2c-3.6,2.5-4.5,7.5-2,11.1c0.1,0.2,0.3,0.4,0.4,0.5l6.2-5.4l0.6,8.2
		c1.3-0.1,2.7-0.6,3.9-1.4C52.1,21.1,53,16.1,50.5,12.5z"/>
</g>
<g id="cocktail-color">
</g>
<g id="cocktail-final">
</g>
</svg>
