<?xml version="1.0" encoding="utf-8"?>
<!-- Generator: Adobe Illustrator 19.2.0, SVG Export Plug-In . SVG Version: 6.00 Build 0)  -->
<svg version="1.1" xmlns="http://www.w3.org/2000/svg" xmlns:xlink="http://www.w3.org/1999/xlink" x="0px" y="0px" width="64px"
	 height="64px" viewBox="0 0 64 64" style="enable-background:new 0 0 64 64;" xml:space="preserve">
<style type="text/css">
	.st0{fill:#98D9ED;}
	.st1{fill:none;stroke:#6D6E70;stroke-width:0.15;stroke-miterlimit:10;}
	.st2{fill:none;stroke:#6D6E70;stroke-width:0.25;stroke-miterlimit:10;}
	.st3{display:none;}
	.st4{display:inline;fill:none;stroke:#221F1F;stroke-width:2;stroke-miterlimit:10;}
	.st5{display:inline;}
	.st6{fill:none;stroke:#221F1F;stroke-width:2;stroke-linejoin:round;stroke-miterlimit:10;}
	.st7{fill:none;stroke:#221F1F;stroke-width:2;stroke-miterlimit:10;}
	.st8{display:inline;fill:none;stroke:#221F1F;stroke-width:2;stroke-linecap:round;stroke-linejoin:round;stroke-miterlimit:10;}
	.st9{fill:none;stroke:#221F1F;stroke-width:2;stroke-linecap:round;stroke-linejoin:round;stroke-miterlimit:10;}
	.st10{fill:#FFFFFF;stroke:#221F1F;stroke-width:2;stroke-miterlimit:10;}
	.st11{clip-path:url(#XMLID_26_);fill:#B8DDDB;}
	.st12{clip-path:url(#XMLID_26_);fill:#EDFBFC;}
	.st13{fill:#DBF0F3;stroke:#221F1F;stroke-width:2;stroke-miterlimit:10;}
	.st14{fill:#FFFFFF;stroke:#000000;stroke-width:2;stroke-linecap:round;stroke-linejoin:round;stroke-miterlimit:10;}
	.st15{clip-path:url(#XMLID_27_);fill:#E8E8E8;}
	.st16{clip-path:url(#XMLID_28_);fill:#E8E8E8;}
	.st17{fill:#DBF0F3;stroke:#000000;stroke-width:2;stroke-linejoin:round;stroke-miterlimit:10;}
	.st18{fill:#DBF0F3;stroke:#000000;stroke-width:2;stroke-miterlimit:10;}
	.st19{clip-path:url(#XMLID_29_);fill:#B8DDDB;}
	.st20{clip-path:url(#XMLID_29_);fill:#EDFBFC;}
	.st21{fill:#DBF0F3;stroke:#000000;stroke-width:1.4;stroke-linejoin:round;stroke-miterlimit:10;}
	.st22{fill:#DBF0F3;stroke:#000000;stroke-width:1.4;stroke-miterlimit:10;}
	.st23{fill:#FFFFFF;stroke:#000000;stroke-width:1.4;stroke-linecap:round;stroke-linejoin:round;stroke-miterlimit:10;}
	.st24{clip-path:url(#XMLID_30_);fill:#E8E8E8;}
	.st25{clip-path:url(#XMLID_31_);fill:#E8E8E8;}
	.st26{fill:#DBF0F3;stroke:#221F1F;stroke-width:1.4;stroke-miterlimit:10;}
	.st27{fill:#EDFBFC;}
	.st28{display:inline;fill:none;stroke:#221F1F;stroke-width:2;stroke-linecap:round;stroke-miterlimit:10;}
	.st29{display:inline;fill:none;stroke:#221F1F;stroke-width:2;stroke-linejoin:round;stroke-miterlimit:10;}
	.st30{fill:#221F1F;}
	.st31{clip-path:url(#XMLID_32_);fill:#EDFBFC;}
	.st32{clip-path:url(#XMLID_33_);fill:#B8DDDB;}
	.st33{clip-path:url(#XMLID_33_);fill:#EDFBFC;}
	.st34{clip-path:url(#XMLID_34_);fill:#EDFBFC;}
	.st35{clip-path:url(#XMLID_34_);fill:#B8DDDB;}
	.st36{clip-path:url(#XMLID_35_);fill:#EDFBFC;}
	.st37{clip-path:url(#XMLID_35_);fill:#B8DDDB;}
	.st38{clip-path:url(#XMLID_36_);fill:#B8DDDB;}
	.st39{clip-path:url(#XMLID_37_);}
	.st40{fill:#E8E8E8;}
	.st41{fill:#DBF0F3;}
	.st42{clip-path:url(#XMLID_38_);fill:#B8DDDB;}
	.st43{display:none;fill:none;stroke:#221F1F;stroke-width:2;stroke-miterlimit:10;}
	.st44{clip-path:url(#XMLID_39_);fill:#EDFBFC;}
	.st45{clip-path:url(#XMLID_40_);fill:#E8E8E8;}
	.st46{fill:#B8DDDB;}
	.st47{fill:none;stroke:#000000;stroke-width:2;stroke-linejoin:round;stroke-miterlimit:10;}
	.st48{clip-path:url(#XMLID_41_);fill:#B8DDDB;}
	.st49{clip-path:url(#XMLID_41_);fill:#EDFBFC;}
	.st50{clip-path:url(#XMLID_42_);fill:#B8DDDB;}
	.st51{clip-path:url(#XMLID_42_);fill:#EDFBFC;}
	.st52{clip-path:url(#XMLID_43_);fill:#B8DDDB;}
	.st53{clip-path:url(#XMLID_43_);fill:#EDFBFC;}
	.st54{display:inline;fill:none;stroke:#000000;stroke-width:2;stroke-linejoin:round;stroke-miterlimit:10;}
	.st55{display:none;fill:none;stroke:#221F1F;stroke-width:2;stroke-linecap:round;stroke-linejoin:round;stroke-miterlimit:10;}
	.st56{clip-path:url(#XMLID_44_);fill:#E8E8E8;}
	.st57{clip-path:url(#XMLID_44_);fill:#FFFFFF;}
	.st58{clip-path:url(#XMLID_45_);fill:#B8DDDB;}
	.st59{clip-path:url(#XMLID_45_);fill:#F5FCFC;}
	.st60{clip-path:url(#XMLID_46_);fill:#B8DDDB;}
	.st61{fill:#F4C689;stroke:#F4BC7D;stroke-miterlimit:10;}
	.st62{fill:#EFBB6A;stroke:#EAF3F4;stroke-linecap:round;stroke-linejoin:round;stroke-miterlimit:10;}
	.st63{fill:none;stroke:#AE8DE2;stroke-linecap:round;stroke-linejoin:round;stroke-miterlimit:10;}
	.st64{opacity:0.7;}
	.st65{clip-path:url(#XMLID_47_);fill:#C5F4F9;}
	.st66{clip-path:url(#XMLID_47_);fill:#FFFFFF;}
	.st67{fill:#F2F8F9;stroke:#A6DDDB;stroke-width:0.6;stroke-linecap:round;stroke-linejoin:round;stroke-miterlimit:10;}
	.st68{opacity:0.8;}
	.st69{opacity:0.6;clip-path:url(#XMLID_48_);fill:#95E597;}
	.st70{clip-path:url(#XMLID_48_);fill:#CBF4C9;}
	.st71{clip-path:url(#XMLID_49_);fill:#B8DDDB;}
	
		.st72{display:inline;fill:none;stroke:#221F1F;stroke-width:1.2;stroke-linecap:round;stroke-linejoin:round;stroke-miterlimit:10;}
	.st73{fill:none;stroke:#221F1F;stroke-width:1.2;stroke-linecap:round;stroke-linejoin:round;stroke-miterlimit:10;}
</style>
<g id="Leapfrog_Grid">
</g>
<g id="boss-bot">
</g>
<g id="boss-bot-color">
</g>
<g id="boss-bot-colorv1">
</g>
<g id="Leapfrog_Grid_1_">
</g>
<g id="teapot">
</g>
<g id="teapot-color">
</g>
<g id="Leapfrog_Grid_2_">
</g>
<g id="coffee-mug">
</g>
<g id="coffee-mug-color">
</g>
<g id="Leapfrog_Grid_3_">
	<g id="Grid_3_">
		<path id="nogo_zone_2_" class="st0" d="M60,0H4H0v4v56v4h4h56h4v-4V4V0H60z M60,60H4V4h56V60z"/>
		<g id="odd-shape_grid_2_">
			<rect x="4" y="4" class="st1" width="8" height="56"/>
			<rect x="52" y="4" class="st1" width="8" height="56"/>
			<rect x="28" y="28" transform="matrix(-1.346054e-10 1 -1 -1.346054e-10 87.9998 24.0002)" class="st1" width="8" height="56"/>
			
				<rect x="28" y="-20" transform="matrix(-1.346054e-10 1 -1 -1.346054e-10 39.9998 -23.9998)" class="st1" width="8" height="56"/>
		</g>
		<circle id="circle_2_" class="st1" cx="32" cy="32" r="28"/>
		<g id="diagonals_2_">
			<line class="st1" x1="0" y1="64" x2="64" y2="0"/>
			<line class="st1" x1="64" y1="64" x2="0" y2="0"/>
		</g>
		<g id="mid_sections_2_">
			<line class="st2" x1="32" y1="64" x2="32" y2="0"/>
			<line class="st2" x1="64" y1="32" x2="0" y2="32"/>
		</g>
	</g>
</g>
<g id="car">
	<g id="editable_3_" class="st3">
		<path class="st7" d="M41.3,27.4c-0.7-1.7-3.4-5.7-4-6.1c-10-1-18,1.7-23.4,6.1H41.3z"/>
		<circle class="st7" cx="15.5" cy="40.1" r="1.9"/>
		<circle class="st7" cx="49.5" cy="40.1" r="1.9"/>
		<path class="st4" d="M48.9,27.3c-0.1,0-5.8,0-5.8,0c-0.5-1.5-4.2-7-5-7.5C17.2,17.8,5,29.1,5,39.4l7.4,0c0.1-2.7,2.3-4.9,5-4.9
			c2.7,0,4.9,2.2,5,4.9l21.6,0c0-2.7,2.3-5,5-5c2.8,0,5,2.2,5,5l4.6,0c0.2-0.8,0.3-1.6,0.3-2.4C59,31.6,54.5,27.3,48.9,27.3z"/>
		<circle class="st4" cx="49" cy="39.5" r="5"/>
		<circle class="st4" cx="17.4" cy="39.5" r="5"/>
		<path class="st4" d="M11.1,27.3h32l0,0c0,0,0,0,0,0c-0.5-1.5-4.2-7-5-7.5c-12.2-1.1-21.4,2.3-27,7.3L11.1,27.3z"/>
		<line class="st4" x1="25.9" y1="26.4" x2="25.9" y2="20.4"/>
	</g>
	<g id="editable_4_">
		<path class="st43" d="M41.3,27.4c-0.7-1.7-3.4-5.7-4-6.1c-10-1-18,1.7-23.4,6.1H41.3z"/>
		<circle class="st43" cx="15.5" cy="40.1" r="1.9"/>
		<circle class="st43" cx="49.5" cy="40.1" r="1.9"/>
		<g>
			<path class="st30" d="M49,45.5c-3,0-5.5-2.2-5.9-5l-19.8,0c-0.4,2.9-2.9,5.1-5.9,5.1c-3,0-5.5-2.2-5.9-5.1l-7.5,0v-1
				c0-4.7,2.3-9.3,6.4-13.1c3.8-3.4,12.4-9,27.8-7.6l0.3,0l0.2,0.2c0.8,0.6,4,5.2,5.1,7.4h5.2C55,26.3,60,31.1,60,37.1
				c0,0.9-0.1,1.8-0.4,2.7l-0.2,0.7l-4.5,0C54.5,43.3,52,45.5,49,45.5z M45,39.6c0.1,2.1,1.8,3.9,4,3.9c2.2,0,3.9-1.7,4-3.9l0-0.2
				c0-2.2-1.8-4-4-4c-2.2,0-4,1.8-4,4L45,39.6z M13.4,39.7c0.1,2.1,1.9,3.8,4,3.8c2.1,0,3.9-1.7,4-3.8l0-0.3c0-2.2-1.8-3.9-4-3.9
				c0,0,0,0,0,0h0c0,0,0,0,0,0c0,0,0,0,0,0c-1.5,0-2.8,0.9-3.5,2.1c-0.3,0.5-0.5,1.2-0.5,1.8L13.4,39.7z M54.9,38.5l2.9,0
				c0.1-0.5,0.1-1,0.1-1.4c0-4.9-4.1-8.8-9.1-8.8l-37.6,0c-3.1,3-4.9,6.6-5.2,10.1l5.5,0c0.1-0.4,0.2-0.8,0.4-1.2
				c0.9-2.2,3-3.7,5.5-3.7c2.9,0,5.4,2.1,5.9,4.9l19.8,0c0.5-2.8,3-5,5.9-5C52,33.5,54.5,35.7,54.9,38.5z M26.9,26.3h14.5
				c-1.1-1.9-3.1-4.8-3.8-5.6c-3.7-0.3-7.3-0.2-10.7,0.3V26.3z M13.6,26.3h11.3v-4.9c-3.4,0.7-6.6,1.9-9.3,3.5
				C14.9,25.4,14.2,25.8,13.6,26.3z"/>
		</g>
	</g>
</g>
<g id="car-color">
</g>
<g id="Leapfrog_Grid_5_">
</g>
<g id="trash">
</g>
<g id="trash-color">
</g>
<g id="Leapfrog_Grid_4_">
</g>
<g id="folder">
</g>
<g id="Leapfrog_Grid_7_">
</g>
<g id="file">
</g>
<g id="Leapfrog_Grid_6_">
</g>
<g id="cocktail">
</g>
<g id="cocktail-color">
</g>
<g id="cocktail-final">
</g>
</svg>
