<?xml version="1.0" encoding="utf-8"?>
<!-- Generator: Adobe Illustrator 19.2.0, SVG Export Plug-In . SVG Version: 6.00 Build 0)  -->
<svg version="1.1" xmlns="http://www.w3.org/2000/svg" xmlns:xlink="http://www.w3.org/1999/xlink" x="0px" y="0px" width="64px"
	 height="64px" viewBox="0 0 64 64" style="enable-background:new 0 0 64 64;" xml:space="preserve">
<style type="text/css">
	.st0{fill:#98D9ED;}
	.st1{fill:none;stroke:#6D6E70;stroke-width:0.15;stroke-miterlimit:10;}
	.st2{fill:none;stroke:#6D6E70;stroke-width:0.25;stroke-miterlimit:10;}
	.st3{display:none;}
	.st4{display:inline;fill:none;stroke:#221F1F;stroke-width:2;stroke-miterlimit:10;}
	.st5{display:inline;}
	.st6{fill:none;stroke:#221F1F;stroke-width:2;stroke-linejoin:round;stroke-miterlimit:10;}
	.st7{fill:none;stroke:#221F1F;stroke-width:2;stroke-miterlimit:10;}
	.st8{display:inline;fill:none;stroke:#221F1F;stroke-width:2;stroke-linecap:round;stroke-linejoin:round;stroke-miterlimit:10;}
	.st9{fill:none;stroke:#221F1F;stroke-width:2;stroke-linecap:round;stroke-linejoin:round;stroke-miterlimit:10;}
	.st10{fill:#FFFFFF;stroke:#221F1F;stroke-width:2;stroke-miterlimit:10;}
	.st11{clip-path:url(#XMLID_26_);fill:#B8DDDB;}
	.st12{clip-path:url(#XMLID_26_);fill:#EDFBFC;}
	.st13{fill:#DBF0F3;stroke:#221F1F;stroke-width:2;stroke-miterlimit:10;}
	.st14{fill:#FFFFFF;stroke:#000000;stroke-width:2;stroke-linecap:round;stroke-linejoin:round;stroke-miterlimit:10;}
	.st15{clip-path:url(#XMLID_27_);fill:#E8E8E8;}
	.st16{clip-path:url(#XMLID_28_);fill:#E8E8E8;}
	.st17{fill:#DBF0F3;stroke:#000000;stroke-width:2;stroke-linejoin:round;stroke-miterlimit:10;}
	.st18{fill:#DBF0F3;stroke:#000000;stroke-width:2;stroke-miterlimit:10;}
	.st19{clip-path:url(#XMLID_29_);fill:#B8DDDB;}
	.st20{clip-path:url(#XMLID_29_);fill:#EDFBFC;}
	.st21{fill:#DBF0F3;stroke:#000000;stroke-width:1.4;stroke-linejoin:round;stroke-miterlimit:10;}
	.st22{fill:#DBF0F3;stroke:#000000;stroke-width:1.4;stroke-miterlimit:10;}
	.st23{fill:#FFFFFF;stroke:#000000;stroke-width:1.4;stroke-linecap:round;stroke-linejoin:round;stroke-miterlimit:10;}
	.st24{clip-path:url(#XMLID_30_);fill:#E8E8E8;}
	.st25{clip-path:url(#XMLID_31_);fill:#E8E8E8;}
	.st26{fill:#DBF0F3;stroke:#221F1F;stroke-width:1.4;stroke-miterlimit:10;}
	.st27{fill:#EDFBFC;}
	.st28{display:inline;fill:none;stroke:#221F1F;stroke-width:2;stroke-linecap:round;stroke-miterlimit:10;}
	.st29{display:inline;fill:none;stroke:#221F1F;stroke-width:2;stroke-linejoin:round;stroke-miterlimit:10;}
	.st30{fill:#221F1F;}
	.st31{clip-path:url(#XMLID_32_);fill:#EDFBFC;}
	.st32{clip-path:url(#XMLID_33_);fill:#B8DDDB;}
	.st33{clip-path:url(#XMLID_33_);fill:#EDFBFC;}
	.st34{clip-path:url(#XMLID_34_);fill:#EDFBFC;}
	.st35{clip-path:url(#XMLID_34_);fill:#B8DDDB;}
	.st36{clip-path:url(#XMLID_35_);fill:#EDFBFC;}
	.st37{clip-path:url(#XMLID_35_);fill:#B8DDDB;}
	.st38{clip-path:url(#XMLID_36_);fill:#B8DDDB;}
	.st39{clip-path:url(#XMLID_37_);}
	.st40{fill:#E8E8E8;}
	.st41{fill:#DBF0F3;}
	.st42{clip-path:url(#XMLID_38_);fill:#B8DDDB;}
	.st43{display:none;fill:none;stroke:#221F1F;stroke-width:2;stroke-miterlimit:10;}
	.st44{clip-path:url(#XMLID_39_);fill:#EDFBFC;}
	.st45{clip-path:url(#XMLID_40_);fill:#E8E8E8;}
	.st46{fill:#B8DDDB;}
	.st47{fill:none;stroke:#000000;stroke-width:2;stroke-linejoin:round;stroke-miterlimit:10;}
	.st48{clip-path:url(#XMLID_41_);fill:#B8DDDB;}
	.st49{clip-path:url(#XMLID_41_);fill:#EDFBFC;}
	.st50{clip-path:url(#XMLID_42_);fill:#B8DDDB;}
	.st51{clip-path:url(#XMLID_42_);fill:#EDFBFC;}
	.st52{clip-path:url(#XMLID_43_);fill:#B8DDDB;}
	.st53{clip-path:url(#XMLID_43_);fill:#EDFBFC;}
	.st54{display:inline;fill:none;stroke:#000000;stroke-width:2;stroke-linejoin:round;stroke-miterlimit:10;}
	.st55{display:none;fill:none;stroke:#221F1F;stroke-width:2;stroke-linecap:round;stroke-linejoin:round;stroke-miterlimit:10;}
	.st56{clip-path:url(#XMLID_44_);fill:#E8E8E8;}
	.st57{clip-path:url(#XMLID_44_);fill:#FFFFFF;}
	.st58{clip-path:url(#XMLID_45_);fill:#B8DDDB;}
	.st59{clip-path:url(#XMLID_45_);fill:#F5FCFC;}
	.st60{clip-path:url(#XMLID_46_);fill:#B8DDDB;}
	.st61{fill:#F4C689;stroke:#F4BC7D;stroke-miterlimit:10;}
	.st62{fill:#EFBB6A;stroke:#EAF3F4;stroke-linecap:round;stroke-linejoin:round;stroke-miterlimit:10;}
	.st63{fill:none;stroke:#AE8DE2;stroke-linecap:round;stroke-linejoin:round;stroke-miterlimit:10;}
	.st64{opacity:0.7;}
	.st65{clip-path:url(#XMLID_47_);fill:#C5F4F9;}
	.st66{clip-path:url(#XMLID_47_);fill:#FFFFFF;}
	.st67{fill:#F2F8F9;stroke:#A6DDDB;stroke-width:0.6;stroke-linecap:round;stroke-linejoin:round;stroke-miterlimit:10;}
	.st68{opacity:0.8;}
	.st69{opacity:0.6;clip-path:url(#XMLID_48_);fill:#95E597;}
	.st70{clip-path:url(#XMLID_48_);fill:#CBF4C9;}
	.st71{clip-path:url(#XMLID_49_);fill:#B8DDDB;}
	
		.st72{display:inline;fill:none;stroke:#221F1F;stroke-width:1.2;stroke-linecap:round;stroke-linejoin:round;stroke-miterlimit:10;}
	.st73{fill:none;stroke:#221F1F;stroke-width:1.2;stroke-linecap:round;stroke-linejoin:round;stroke-miterlimit:10;}
</style>
<g id="Leapfrog_Grid">
</g>
<g id="boss-bot">
</g>
<g id="boss-bot-color">
</g>
<g id="boss-bot-colorv1">
</g>
<g id="Leapfrog_Grid_1_">
</g>
<g id="teapot">
</g>
<g id="teapot-color">
</g>
<g id="Leapfrog_Grid_2_">
</g>
<g id="coffee-mug">
</g>
<g id="coffee-mug-color">
</g>
<g id="Leapfrog_Grid_3_">
</g>
<g id="car">
</g>
<g id="car-color">
</g>
<g id="Leapfrog_Grid_5_">
</g>
<g id="trash">
</g>
<g id="trash-color">
	<g>
		<defs>
			<path id="XMLID_17_" d="M43.8,59H20.2c-1.7,0-3.3-1.4-3.5-3.2L13,15h38l-3.7,40.8C47.1,57.6,45.6,59,43.8,59z"/>
		</defs>
		<use xlink:href="#XMLID_17_"  style="overflow:visible;fill:#DBF0F3;"/>
		<clipPath id="XMLID_26_">
			<use xlink:href="#XMLID_17_"  style="overflow:visible;"/>
		</clipPath>
		<path class="st11" d="M47.3,55.8L51,15h-9.3c2.3,14.5,1.2,29.3,0,44h2.1C45.6,59,47.1,57.6,47.3,55.8z"/>
		<path class="st12" d="M16.7,55.8L13,15h7.6c-3.1,14.8-0.1,37.3,0.6,44h-1C18.4,59,16.9,57.6,16.7,55.8z"/>
		
			<use xlink:href="#XMLID_17_"  style="overflow:visible;fill:none;stroke:#000000;stroke-width:2;stroke-linejoin:round;stroke-miterlimit:10;"/>
	</g>
	<line class="st47" x1="40" y1="24" x2="40" y2="50"/>
	<line class="st47" x1="24" y1="24" x2="24" y2="50"/>
	<line class="st47" x1="32" y1="24" x2="32" y2="50"/>
	<g>
		<defs>
			<path id="XMLID_15_" d="M44.2,5H19.9c-0.7,0-1.6,0.8-1.8,1.9L17,11h30l-1-4.1C45.7,5.8,44.9,5,44.2,5z"/>
		</defs>
		<use xlink:href="#XMLID_15_"  style="overflow:visible;fill:#DBF0F3;"/>
		<clipPath id="XMLID_27_">
			<use xlink:href="#XMLID_15_"  style="overflow:visible;"/>
		</clipPath>
		<path style="clip-path:url(#XMLID_27_);fill:#B8DDDB;" d="M44.2,5H40c1.7,1.6,1.8,3.8,1.7,6H47l-1-4.1C45.7,5.8,44.9,5,44.2,5z"/>
		<path style="clip-path:url(#XMLID_27_);fill:#EDFBFC;" d="M18.7,5L22,5c-1,1.6-1.9,3.8-1.8,6H17l0.6-4.1C17.8,5.8,18.3,5,18.7,5z"
			/>
		
			<use xlink:href="#XMLID_15_"  style="overflow:visible;fill:none;stroke:#000000;stroke-width:2;stroke-linejoin:round;stroke-miterlimit:10;"/>
	</g>
	<g>
		<defs>
			<path id="XMLID_16_" d="M52,15H12c-1.1,0-2-0.9-2-2v0c0-1.1,0.9-2,2-2h40c1.1,0,2,0.9,2,2v0C54,14.1,53.1,15,52,15z"/>
		</defs>
		<use xlink:href="#XMLID_16_"  style="overflow:visible;fill:#DBF0F3;"/>
		<clipPath id="XMLID_28_">
			<use xlink:href="#XMLID_16_"  style="overflow:visible;"/>
		</clipPath>
		<path style="clip-path:url(#XMLID_28_);fill:#B8DDDB;" d="M53.6,15l-11.9,0c0.9-1.3,0.9-2.7,0-4h11.9V15z"/>
		<path style="clip-path:url(#XMLID_28_);fill:#EDFBFC;" d="M10.5,15l10.2,0c-0.8-1.3-0.8-2.7,0-4H10.5V15z"/>
		<path style="clip-path:url(#XMLID_28_);fill:#B8DDDB;" d="M44.2,5H40c1.7,1.6,1.8,3.8,1.7,6H47l-1-4.1C45.7,5.8,44.9,5,44.2,5z"/>
		<path style="clip-path:url(#XMLID_28_);fill:#B8DDDB;" d="M44.2,5H40c1.7,1.6,1.8,3.8,1.7,6H47l-1-4.1C45.7,5.8,44.9,5,44.2,5z"/>
		<path style="clip-path:url(#XMLID_28_);fill:#B8DDDB;" d="M44.2,5H40c1.7,1.6,1.8,3.8,1.7,6H47l-1-4.1C45.7,5.8,44.9,5,44.2,5z"/>
		<path style="clip-path:url(#XMLID_28_);fill:#B8DDDB;" d="M44.2,5H40c1.7,1.6,1.8,3.8,1.7,6H47l-1-4.1C45.7,5.8,44.9,5,44.2,5z"/>
		<path style="clip-path:url(#XMLID_28_);fill:#B8DDDB;" d="M44.2,5H40c1.7,1.6,1.8,3.8,1.7,6H47l-1-4.1C45.7,5.8,44.9,5,44.2,5z"/>
		
			<use xlink:href="#XMLID_16_"  style="overflow:visible;fill:none;stroke:#000000;stroke-width:2;stroke-linejoin:round;stroke-miterlimit:10;"/>
	</g>
</g>
<g id="Leapfrog_Grid_4_">
</g>
<g id="folder">
</g>
<g id="Leapfrog_Grid_7_">
</g>
<g id="file">
</g>
<g id="Leapfrog_Grid_6_">
</g>
<g id="cocktail">
</g>
<g id="cocktail-color">
</g>
<g id="cocktail-final">
</g>
</svg>
