<?xml version="1.0" encoding="utf-8"?>
<!-- Generator: Adobe Illustrator 19.2.0, SVG Export Plug-In . SVG Version: 6.00 Build 0)  -->
<svg version="1.1" xmlns="http://www.w3.org/2000/svg" xmlns:xlink="http://www.w3.org/1999/xlink" x="0px" y="0px" width="64px"
	 height="64px" viewBox="0 0 64 64" style="enable-background:new 0 0 64 64;" xml:space="preserve">
<style type="text/css">
	.st0{fill:#98D9ED;}
	.st1{fill:none;stroke:#6D6E70;stroke-width:0.15;stroke-miterlimit:10;}
	.st2{fill:none;stroke:#6D6E70;stroke-width:0.25;stroke-miterlimit:10;}
	.st3{display:none;}
	.st4{display:inline;fill:none;stroke:#221F1F;stroke-width:2;stroke-miterlimit:10;}
	.st5{display:inline;}
	.st6{fill:none;stroke:#221F1F;stroke-width:2;stroke-linejoin:round;stroke-miterlimit:10;}
	.st7{fill:none;stroke:#221F1F;stroke-width:2;stroke-miterlimit:10;}
	.st8{display:inline;fill:none;stroke:#221F1F;stroke-width:2;stroke-linecap:round;stroke-linejoin:round;stroke-miterlimit:10;}
	.st9{fill:none;stroke:#221F1F;stroke-width:2;stroke-linecap:round;stroke-linejoin:round;stroke-miterlimit:10;}
	.st10{fill:#FFFFFF;stroke:#221F1F;stroke-width:2;stroke-miterlimit:10;}
	.st11{clip-path:url(#XMLID_26_);fill:#B8DDDB;}
	.st12{clip-path:url(#XMLID_26_);fill:#EDFBFC;}
	.st13{fill:#DBF0F3;stroke:#221F1F;stroke-width:2;stroke-miterlimit:10;}
	.st14{fill:#FFFFFF;stroke:#000000;stroke-width:2;stroke-linecap:round;stroke-linejoin:round;stroke-miterlimit:10;}
	.st15{clip-path:url(#XMLID_27_);fill:#E8E8E8;}
	.st16{clip-path:url(#XMLID_28_);fill:#E8E8E8;}
	.st17{fill:#DBF0F3;stroke:#000000;stroke-width:2;stroke-linejoin:round;stroke-miterlimit:10;}
	.st18{fill:#DBF0F3;stroke:#000000;stroke-width:2;stroke-miterlimit:10;}
	.st19{clip-path:url(#XMLID_29_);fill:#B8DDDB;}
	.st20{clip-path:url(#XMLID_29_);fill:#EDFBFC;}
	.st21{fill:#DBF0F3;stroke:#000000;stroke-width:1.4;stroke-linejoin:round;stroke-miterlimit:10;}
	.st22{fill:#DBF0F3;stroke:#000000;stroke-width:1.4;stroke-miterlimit:10;}
	.st23{fill:#FFFFFF;stroke:#000000;stroke-width:1.4;stroke-linecap:round;stroke-linejoin:round;stroke-miterlimit:10;}
	.st24{clip-path:url(#XMLID_30_);fill:#E8E8E8;}
	.st25{clip-path:url(#XMLID_31_);fill:#E8E8E8;}
	.st26{fill:#DBF0F3;stroke:#221F1F;stroke-width:1.4;stroke-miterlimit:10;}
	.st27{fill:#EDFBFC;}
	.st28{display:inline;fill:none;stroke:#221F1F;stroke-width:2;stroke-linecap:round;stroke-miterlimit:10;}
	.st29{display:inline;fill:none;stroke:#221F1F;stroke-width:2;stroke-linejoin:round;stroke-miterlimit:10;}
	.st30{fill:#221F1F;}
	.st31{clip-path:url(#XMLID_32_);fill:#EDFBFC;}
	.st32{clip-path:url(#XMLID_33_);fill:#B8DDDB;}
	.st33{clip-path:url(#XMLID_33_);fill:#EDFBFC;}
	.st34{clip-path:url(#XMLID_34_);fill:#EDFBFC;}
	.st35{clip-path:url(#XMLID_34_);fill:#B8DDDB;}
	.st36{clip-path:url(#XMLID_35_);fill:#EDFBFC;}
	.st37{clip-path:url(#XMLID_35_);fill:#B8DDDB;}
	.st38{clip-path:url(#XMLID_36_);fill:#B8DDDB;}
	.st39{clip-path:url(#XMLID_37_);}
	.st40{fill:#E8E8E8;}
	.st41{fill:#DBF0F3;}
	.st42{clip-path:url(#XMLID_38_);fill:#B8DDDB;}
	.st43{display:none;fill:none;stroke:#221F1F;stroke-width:2;stroke-miterlimit:10;}
	.st44{clip-path:url(#XMLID_39_);fill:#EDFBFC;}
	.st45{clip-path:url(#XMLID_40_);fill:#E8E8E8;}
	.st46{fill:#B8DDDB;}
	.st47{fill:none;stroke:#000000;stroke-width:2;stroke-linejoin:round;stroke-miterlimit:10;}
	.st48{clip-path:url(#XMLID_41_);fill:#B8DDDB;}
	.st49{clip-path:url(#XMLID_41_);fill:#EDFBFC;}
	.st50{clip-path:url(#XMLID_42_);fill:#B8DDDB;}
	.st51{clip-path:url(#XMLID_42_);fill:#EDFBFC;}
	.st52{clip-path:url(#XMLID_43_);fill:#B8DDDB;}
	.st53{clip-path:url(#XMLID_43_);fill:#EDFBFC;}
	.st54{display:inline;fill:none;stroke:#000000;stroke-width:2;stroke-linejoin:round;stroke-miterlimit:10;}
	.st55{display:none;fill:none;stroke:#221F1F;stroke-width:2;stroke-linecap:round;stroke-linejoin:round;stroke-miterlimit:10;}
	.st56{clip-path:url(#XMLID_44_);fill:#E8E8E8;}
	.st57{clip-path:url(#XMLID_44_);fill:#FFFFFF;}
	.st58{clip-path:url(#XMLID_45_);fill:#B8DDDB;}
	.st59{clip-path:url(#XMLID_45_);fill:#F5FCFC;}
	.st60{clip-path:url(#XMLID_46_);fill:#B8DDDB;}
	.st61{fill:#F4C689;stroke:#F4BC7D;stroke-miterlimit:10;}
	.st62{fill:#EFBB6A;stroke:#EAF3F4;stroke-linecap:round;stroke-linejoin:round;stroke-miterlimit:10;}
	.st63{fill:none;stroke:#AE8DE2;stroke-linecap:round;stroke-linejoin:round;stroke-miterlimit:10;}
	.st64{opacity:0.7;}
	.st65{clip-path:url(#XMLID_47_);fill:#C5F4F9;}
	.st66{clip-path:url(#XMLID_47_);fill:#FFFFFF;}
	.st67{fill:#F2F8F9;stroke:#A6DDDB;stroke-width:0.6;stroke-linecap:round;stroke-linejoin:round;stroke-miterlimit:10;}
	.st68{opacity:0.8;}
	.st69{opacity:0.6;clip-path:url(#XMLID_48_);fill:#95E597;}
	.st70{clip-path:url(#XMLID_48_);fill:#CBF4C9;}
	.st71{clip-path:url(#XMLID_49_);fill:#B8DDDB;}
	
		.st72{display:inline;fill:none;stroke:#221F1F;stroke-width:1.2;stroke-linecap:round;stroke-linejoin:round;stroke-miterlimit:10;}
	.st73{fill:none;stroke:#221F1F;stroke-width:1.2;stroke-linecap:round;stroke-linejoin:round;stroke-miterlimit:10;}
</style>
<g id="Leapfrog_Grid">
</g>
<g id="boss-bot">
</g>
<g id="boss-bot-color">
</g>
<g id="boss-bot-colorv1">
</g>
<g id="Leapfrog_Grid_1_">
	<g id="Grid_1_">
		<path id="nogo_zone_8_" class="st0" d="M60,0H4H0v4v56v4h4h56h4v-4V4V0H60z M60,60H4V4h56V60z"/>
		<g id="odd-shape_grid_8_">
			<rect x="4" y="4" class="st1" width="8" height="56"/>
			<rect x="52" y="4" class="st1" width="8" height="56"/>
			<rect x="28" y="28" transform="matrix(-1.344917e-10 1 -1 -1.344917e-10 88 24)" class="st1" width="8" height="56"/>
			<rect x="28" y="-20" transform="matrix(-1.344917e-10 1 -1 -1.344917e-10 40 -24)" class="st1" width="8" height="56"/>
		</g>
		<circle id="circle_8_" class="st1" cx="32" cy="32" r="28"/>
		<g id="diagonals_8_">
			<line class="st1" x1="0" y1="64" x2="64" y2="0"/>
			<line class="st1" x1="64" y1="64" x2="0" y2="0"/>
		</g>
		<g id="mid_sections_8_">
			<line class="st2" x1="32" y1="64" x2="32" y2="0"/>
			<line class="st2" x1="64" y1="32" x2="0" y2="32"/>
		</g>
	</g>
</g>
<g id="teapot">
	<g id="editable_1_" class="st3">
		<path class="st28" d="M43.3,21h-22c-1.1,0-2-0.9-2-2v0c0-1.1,0.9-2,2-2h22c1.1,0,2,0.9,2,2v0C45.3,20.1,44.4,21,43.3,21z"/>
		<path class="st4" d="M42.3,17c-0.6-4.5-4.8-8-10-8c-5.2,0-9.4,3.5-10,8H42.3z"/>
		<path class="st4" d="M45.5,59H19.1c-2.4,0-4.2-2.1-3.8-4.3L22.2,21h20.3l6.8,33.7C49.7,56.9,47.9,59,45.5,59z"/>
		<circle class="st4" cx="32.3" cy="6.3" r="2"/>
		<path class="st29" d="M17.8,42.4c-8.5,0.4,0.6-11.9-10.1-17.7L6,27.8c8.2,4-2.7,20.9,9.9,24.1L17.8,42.4z"/>
		<path class="st29" d="M48.4,50.5c1.3-15.4,14.4-24.8,7.8-28.2c-3.2-1.7-5.4,5.3-12.9,3.1L48.4,50.5z"/>
	</g>
	<g id="expanded_1_">
		<path class="st30" d="M45.5,60H19.1c-1.5,0-2.9-0.6-3.8-1.8c-0.9-1.1-1.2-2.4-0.9-3.7l0.4-1.8c-6.9-2.2-6.6-8.8-6.4-14.1
			c0.2-4.5,0.3-8.3-2.8-9.8l-0.9-0.5l2.7-4.9l0.9,0.5c6.1,3.3,6.3,8.6,6.4,12.6c0.1,2,0.1,3.7,0.9,4.5c0.3,0.3,0.9,0.5,1.6,0.5
			L20.9,22c-0.7-0.1-1.3-0.4-1.8-0.9c-0.6-0.6-0.9-1.3-0.9-2.1c0-1.7,1.3-3,3-3h0.2c0.9-3.9,4.3-7,8.5-7.8c-0.4-0.5-0.7-1.2-0.7-1.9
			c0-1.7,1.3-3,3-3c1.7,0,3,1.3,3,3c0,0.7-0.3,1.4-0.7,1.9c4.2,0.8,7.6,3.9,8.5,7.8h0.2c1.7,0,3,1.3,3,3c0,1.5-1.2,2.8-2.6,3
			l0.5,2.5c3.5,0.8,5.6-0.6,7.5-1.9c1.5-1.1,3.1-2.2,5-1.2c1.2,0.6,1.9,1.4,2.2,2.5c0.7,2.3-0.9,5.1-3.1,9.1
			c-2.6,4.6-5.8,10.4-6.4,17.5l0.8,4.1c0.3,1.3-0.1,2.7-0.9,3.7C48.3,59.4,47,60,45.5,60z M23,22l-6.6,32.9c-0.1,0.7,0,1.5,0.5,2.1
			c0.5,0.7,1.4,1,2.3,1h26.3c0.9,0,1.7-0.4,2.3-1c0.5-0.6,0.7-1.3,0.5-2L41.6,22H23z M7.3,27.5c3.3,2.3,3.2,6.8,3,11.2
			c-0.2,5.2-0.4,10.2,4.8,12l1.5-7.3c-1-0.1-1.8-0.5-2.5-1c-1.4-1.3-1.5-3.4-1.6-5.9c-0.1-3.6-0.2-7.6-4.5-10.4L7.3,27.5z
			 M44.6,26.6L48.3,45c1.4-5.3,3.8-9.7,5.8-13.2c1.8-3.2,3.3-6,2.9-7.5c-0.1-0.3-0.3-0.8-1.2-1.3c-0.7-0.4-1.4,0-3,1.1
			C50.9,25.5,48.5,27.2,44.6,26.6z M43.2,20L43.2,20c0.6,0,1-0.4,1-1c0-0.6-0.4-1-1-1h-22c-0.6,0-1,0.4-1,1c0,0.3,0.1,0.5,0.3,0.7
			c0.2,0.2,0.4,0.3,0.7,0.3H43.2z M43.4,18L43.4,18L43.4,18z M23.5,16h17.5c-1-3.5-4.6-6-8.8-6C28.1,10,24.5,12.5,23.5,16z
			 M32.3,5.3c-0.6,0-1,0.4-1,1s0.4,1,1,1c0.6,0,1-0.4,1-1S32.8,5.3,32.3,5.3z"/>
	</g>
</g>
<g id="teapot-color">
</g>
<g id="Leapfrog_Grid_2_">
</g>
<g id="coffee-mug">
</g>
<g id="coffee-mug-color">
</g>
<g id="Leapfrog_Grid_3_">
</g>
<g id="car">
</g>
<g id="car-color">
</g>
<g id="Leapfrog_Grid_5_">
</g>
<g id="trash">
</g>
<g id="trash-color">
</g>
<g id="Leapfrog_Grid_4_">
</g>
<g id="folder">
</g>
<g id="Leapfrog_Grid_7_">
</g>
<g id="file">
</g>
<g id="Leapfrog_Grid_6_">
</g>
<g id="cocktail">
</g>
<g id="cocktail-color">
</g>
<g id="cocktail-final">
</g>
</svg>
