<svg xmlns="http://www.w3.org/2000/svg" width="64" height="64" viewBox="0 0 64 64"><title>li</title><path d="M32,60A19.81,19.81,0,0,1,12,40.42h0c0-.5,0-1,0.06-1.46l0.08-1.08h0a19.5,19.5,0,0,1,8.1-13.31l0-4.89-3.6-5.76L43.49,15.1v4.25a23.79,23.79,0,0,0,6.61-3l1.23-.77L51.61,17c1.51,7.56,3.11,12.51,5.18,16.05a3.86,3.86,0,0,0,1.36.85c0.27,0.13.55,0.27,0.82,0.41l-1,1.76-0.73-.36a4.75,4.75,0,0,1-2.22-1.65C53,30.55,51.42,25.8,49.94,18.78a23.63,23.63,0,0,1-6.45,2.63v3a19.51,19.51,0,0,1,8.37,13.77h0l0,0.34a19.14,19.14,0,0,1,.1,1.91A19.81,19.81,0,0,1,32,60ZM14,40.42A17.81,17.81,0,0,0,32,58,17.81,17.81,0,0,0,50,40.42q0-.31,0-0.61A40.77,40.77,0,0,0,32.12,40c-5,1.18-10.94,1.25-18.12.21,0,0.08,0,.15,0,0.23h0Zm0.15-2.24c7,1,12.73,1,17.52-.16a42.59,42.59,0,0,1,18.13-.3A17.54,17.54,0,0,0,42.37,26L21.7,26A17.51,17.51,0,0,0,14.15,38.18ZM24.11,24H41.49V17l-21.14-.93,1.52,2.44h5.46v2H22.24l0,3.47h1.85Z" fill="#221f1f"/></svg>