<svg xmlns="http://www.w3.org/2000/svg" width="64" height="64" viewBox="0 0 64 64"><title>li</title><path d="M45.46,60H19.12a4.88,4.88,0,0,1-3.8-1.77,4.46,4.46,0,0,1-.94-3.71l0.37-1.85c-6.85-2.24-6.62-8.79-6.43-14.1,0.16-4.46.3-8.32-2.81-9.83l-0.94-.46L7.24,23.4l0.87,0.47c6.14,3.28,6.3,8.64,6.42,12.56,0.06,2,.11,3.72.91,4.46a2.46,2.46,0,0,0,1.57.53L20.94,22a3,3,0,0,1,.35-6h0.16A10.59,10.59,0,0,1,30,8.22a3,3,0,1,1,4.63,0A10.59,10.59,0,0,1,43.13,16h0.16a3,3,0,0,1,.35,6l0.51,2.53c3.52,0.84,5.62-.64,7.48-1.95,1.54-1.09,3.13-2.21,5-1.23a4.14,4.14,0,0,1,2.22,2.46c0.7,2.33-.88,5.15-3.06,9.05C53.23,37.48,50,43.24,49.37,50.4l0.83,4.12a4.46,4.46,0,0,1-.94,3.71A4.88,4.88,0,0,1,45.46,60ZM23,22L16.34,54.91A2.43,2.43,0,0,0,16.87,57a2.89,2.89,0,0,0,2.26,1H45.46a2.89,2.89,0,0,0,2.26-1,2.43,2.43,0,0,0,.53-2L41.61,22H23ZM7.3,27.46c3.34,2.3,3.18,6.81,3,11.17-0.19,5.22-.36,10.16,4.76,12l1.47-7.29a4.18,4.18,0,0,1-2.46-1c-1.41-1.31-1.48-3.42-1.55-5.86C12.43,32.9,12.31,28.87,8,26.13Zm37.28-.84L48.29,45a55.31,55.31,0,0,1,5.78-13.16c1.79-3.21,3.34-6,2.89-7.5a2.1,2.1,0,0,0-1.22-1.26c-0.75-.38-1.4,0-3,1.08C50.93,25.5,48.47,27.24,44.58,26.63ZM43.25,20h0a1,1,0,1,0,0-2h-22a1,1,0,0,0,0,2h22Zm0.18-2h0ZM23.52,16H41.06c-1-3.49-4.59-6-8.77-6S24.55,12.51,23.52,16ZM32.29,5.31a1,1,0,1,0,1,1A1,1,0,0,0,32.29,5.31Z" fill="#221f1f"/></svg>