<svg xmlns="http://www.w3.org/2000/svg" width="64" height="64" viewBox="0 0 64 64"><title>li</title><path d="M40,59.82H24a1,1,0,0,1-1-.91l-4-42a1,1,0,0,1,1-1.09L18,10.94l-8.46-5,1-1.72,8.75,5.17a1,1,0,0,1,.41.47l2.52,6H44a1,1,0,0,1,1,1.09l-4,42A1,1,0,0,1,41,59h0A1,1,0,0,1,40,59.82Zm-1.77-2h0.86l0-.38Zm-13.32,0H37.78l-10-23.54a10.4,10.4,0,0,1-5.2-.63Zm4.88-24L39.26,56.2l2.26-23.71a10.85,10.85,0,0,0-9.11.3A15.56,15.56,0,0,1,29.81,33.85Zm-7.41-2.5a8.43,8.43,0,0,0,4.6,1L21.19,18.6ZM23,17.82L29,32a13.64,13.64,0,0,0,2.51-1,13,13,0,0,1,10.18-.57l1.2-12.6H23Z" fill="#221f1f"/></svg>